<?xml version="1.0" encoding="iso-8859-1"?>
<!-- Generator: Adobe Illustrator 19.0.0, SVG Export Plug-In . SVG Version: 6.00 Build 0)  -->
<svg version="1.1" id="Layer_1" xmlns="http://www.w3.org/2000/svg" xmlns:xlink="http://www.w3.org/1999/xlink" x="0px" y="0px"
	 viewBox="0 0 296.9 296.9" style="enable-background:new 0 0 296.9 296.9;" xml:space="preserve">
<g>
	<g>
		<g>
			<path d="M213.088,24.295V1.984c0-0.588-0.26-1.148-0.712-1.524c-0.452-0.376-1.048-0.532-1.624-0.428L75.144,24.295V296.9
				h146.612V24.295H213.088z M209.12,4.364v19.932H99.188L209.12,4.364z M217.784,277.788v15.144h-107.74l6.604-10.508l-1.92-1.208
				l-7.36,11.716h-6.176l6.604-10.508l-1.92-1.208l-7.364,11.716H92.34l6.604-10.508l-1.92-1.208l-7.36,11.716h-6.176l6.604-10.508
				l-1.92-1.208l-7.364,11.716h-1.692v-15.144h95.18v-2.268H79.112V38.456h21.872v-2.268H79.112v-7.92h131.992h6.68v7.912h-92.416
				v2.268h92.416V275.52h-23.112v2.268H217.784z"/>
			<rect x="113.088" y="36.18" width="5.02" height="2.268"/>
			<rect x="177.528" y="275.5" width="5.016" height="2.268"/>
			<path d="M118.58,232.42l-5.004,12.64c-0.576,1.512-1.26,3.744-1.26,3.744h-0.072c0,0-0.72-2.232-1.296-3.744l-5.004-12.64h-4.968
				l-2.088,25.568h4.644l1.08-14.296c0.108-1.692,0.036-3.996,0.036-3.996h0.072c0,0,0.792,2.52,1.404,3.996l4.104,9.904h4.068
				l4.14-9.904c0.612-1.476,1.368-3.96,1.368-3.96h0.072c0,0-0.072,2.268,0.036,3.96l1.08,14.296h4.608l-2.052-25.568H118.58z"/>
			<polygon points="135.928,247.112 144.536,247.112 144.536,243.116 135.928,243.116 135.928,236.42 146.588,236.42 
				146.588,232.42 131.284,232.42 131.284,257.988 147.164,257.988 147.164,253.992 135.928,253.992 			"/>
			<path d="M168.26,247.184c0,1.512,0.252,3.96,0.252,3.96h-0.072c0,0-1.152-2.484-2.124-3.96l-9.688-14.764h-4.648v25.568h4.648
				V243.26c0-1.512-0.252-3.96-0.252-3.96h0.072c0,0,1.152,2.484,2.124,3.96l9.688,14.728h4.608V232.42h-4.608V247.184z"/>
			<path d="M199.62,248.803V232.42h-4.648v16.348c0,3.456-2.268,5.404-5.688,5.404s-5.656-1.944-5.656-5.368V232.42h-4.644v16.384
				c0,5.728,4.14,9.616,10.336,9.616C195.476,258.42,199.62,254.532,199.62,248.803z"/>
			<path d="M178.488,203.548v-51.972c10.604-8.7,17.428-21.832,17.428-36.588c0-14.752-6.832-27.868-17.428-36.568
				c0,0-0.176-18.232-0.236-19.024l-0.056-0.72l-4.232-1.6l-0.508,0.684c-1.084,1.452-2.232,2.86-3.376,4.268
				c-2.108,2.588-4.248,5.268-6.028,8.22c-4.432-1.556-9.14-2.492-14.056-2.656c-0.016-1.032-0.024-2.028-0.044-3.072
				c-0.028-1.552-1.052-2.892-2.044-4.18L147,59.123h-5.276v36.832l-1.9,0.008v-36.84h-7.468v36.94c-0.696-0.004-1.56-0.004-2.252,0
				v-36.94h-7.468v36.836l-1.792-0.004V59.123h-5.276l-0.908,1.216c-0.992,1.292-2.012,2.628-2.044,4.18
				c-0.124,6.844-0.188,13.388-0.2,19.752c-7.084,8.292-11.436,18.984-11.436,30.716c0,16.304,8.3,30.66,20.852,39.212
				c-0.424,7.66-0.82,15.3-1.192,22.792l-0.672,13.308c-0.26,5.056-0.268,10.748,2.972,14.244c1.816,1.964,4.484,3,7.924,3.088
				l0.528-0.004l0.26,0.008h0.048c3.444-0.088,6.112-1.128,7.928-3.088c3.24-3.5,3.232-9.188,2.968-14.244l-0.676-13.408
				c-0.248-4.976-0.508-10.052-0.772-15.12c2.384,0.396,4.804,0.684,7.304,0.684c5.42,0,10.6-0.984,15.452-2.672
				c-0.216,1.092-0.428,2.188-0.644,3.276c-1.788,8.976-3.636,18.26-3.66,25.308c-0.02,6.184,1.5,13.984,4.952,17.452
				c1.736,1.748,3.608,2.632,5.572,2.632c0.036,0,0.072,0,0.108,0c2.528-0.044,5.128-1.54,7.956-4.58L178.488,203.548z
				 M178.488,81.416c9.256,8.264,15.16,20.208,15.16,33.572c0,13.376-5.892,25.348-15.16,33.624V81.416z M103.252,114.988
				c0-10.212,3.436-19.616,9.168-27.192c0.008,6.076,0.064,12.004,0.176,17.8c0.052,2.668,1.028,7.348,3.432,8.576
				c8.752,4.46,8.032,11.152,7.2,18.9c-0.148,1.392-0.3,2.792-0.392,4.184c-0.312,4.736-0.576,9.508-0.848,14.272
				C110.668,143.308,103.252,130.02,103.252,114.988z M137.964,203.004c-1.404,1.516-3.472,2.288-6.324,2.364l-0.356-0.012
				l-0.356,0.012c-2.852-0.076-4.916-0.848-6.324-2.364c-2.64-2.852-2.608-7.996-2.368-12.588l0.672-13.312
				c0.648-13.016,2.432-42.428,2.58-43.788c0.844-7.864,1.716-15.996-8.428-21.164c-1.076-0.548-2.14-3.752-2.196-6.596
				c-0.252-12.892-0.248-26.3,0.02-40.992c0.016-0.808,1.824-3.172,1.824-3.172h1.864v36.824l6.332,0.02V61.392h2.928v37l1.18-0.048
				c0.58-0.024,3.852-0.024,4.432,0l1.18,0.048v-37h2.928v36.844l6.44-0.02V61.392h1.864c0,0,1.808,2.364,1.824,3.172
				c0.268,14.692,0.276,28.1,0.02,40.992c-0.06,2.844-1.124,6.052-2.196,6.6c-10.144,5.168-9.272,13.3-8.428,21.164
				c0.148,1.36,1.928,30.708,2.576,43.692l0.676,13.412C140.568,195.008,140.604,200.148,137.964,203.004z M148.448,160.188
				c-2.54,0-5-0.304-7.42-0.728c-0.392-7.4-0.812-14.828-1.3-22.2c-0.092-1.392-0.244-2.792-0.392-4.184
				c-0.832-7.752-1.552-14.44,7.204-18.9c2.7-1.376,3.396-6.656,3.432-8.576c0.224-11.324,0.232-23.1,0.056-35.736
				c4.496,0.164,8.812,1.004,12.88,2.392c-9.36,18.168-9.66,51.184,3.912,67.16c-0.128,5.056-1.176,11.344-2.416,17.792
				C159.436,159.096,154.072,160.188,148.448,160.188z M170.188,206.188c-1.34-0.02-2.696-0.62-4.032-1.96
				c-2.976-2.996-4.312-10.312-4.292-15.844c0.02-6.832,1.848-16,3.612-24.872c1.728-8.676,3.512-17.648,3.616-24.488l0.008-0.436
				l-0.288-0.328c-10.956-12.524-15-43.72-3.796-65.168c1.82-3.488,4.36-6.608,6.816-9.624c0.988-1.212,1.972-2.42,2.92-3.66
				l1.292,0.488c0.048,0.564,0.1,1.124,0.152,1.684l0.02,140.676C173.96,205,171.988,206.156,170.188,206.188z"/>
			
				<rect x="125.227" y="168.05" transform="matrix(-0.9983 -0.0585 0.0585 -0.9983 242.414 352.0539)" width="2.268" height="8.856"/>
			
				<rect x="126.652" y="137.281" transform="matrix(-0.9983 -0.0585 0.0585 -0.9983 246.5263 309.0815)" width="2.268" height="27.304"/>
		</g>
	</g>
</g>
<g>
</g>
<g>
</g>
<g>
</g>
<g>
</g>
<g>
</g>
<g>
</g>
<g>
</g>
<g>
</g>
<g>
</g>
<g>
</g>
<g>
</g>
<g>
</g>
<g>
</g>
<g>
</g>
<g>
</g>
</svg>
