<svg height="511pt" viewBox="0 -5 511.99813 511" width="511pt" xmlns="http://www.w3.org/2000/svg"><g fill="#af7979"><path d="m403.398438 83.566406c.445312 7.628906 4.664062 14.929688 11.015624 19.054688 3.84375 2.496094 8.578126 3.871094 13.339844 3.871094 3.402344 0 6.785156-.703126 9.789063-2.035157 7.257812-3.230469 12.769531-10.347656 14.097656-18.175781l1.457031-5.972656-50.023437-2.277344zm0 0"/><path d="m433.980469 319.726562c-2.226563-1.203124-4.785157-1.808593-7.601563-1.808593-2.46875 0-4.628906.46875-5.984375.855469-18.523437 5.207031-25.125 16.355468-25.125 25.054687 0 .398437.015625.816406.039063 1.171875.472656 8.03125 5.925781 15.953125 13.578125 19.714844 3.65625 1.792968 7.878906 2.742187 12.210937 2.742187 4 0 8.09375-.816406 11.832032-2.359375 5.890624-2.4375 12.691406-7.8125 14.101562-15.617187 1.011719-5.6875-1.007812-11.324219-2.984375-16.167969-2.578125-6.300781-5.28125-11.023438-10.066406-13.585938zm0 0"/><path d="m393.75 245.300781c-4.042969-6.019531-11.058594-10.375-19.75-12.261719-6.164062-1.335937-12.347656-2.011718-18.371094-2.011718-5.46875 0-10.613281.566406-15.289062 1.675781-6.175782 1.476563-11.503906 3.882813-15.847656 7.160156-4.441407 3.363281-7.882813 7.664063-10.222657 12.792969-5.824219 12.808594-3.9375 28.882812 4.8125 40.957031 8.085938 11.140625 21.722657 18.636719 36.476563 20.050781 1.492187.144532 3.023437.21875 4.550781.21875 12.472656 0 23.203125-4.5625 29.445313-12.519531 6.125-7.8125 7.601562-18.132812 8.5-27.1875.949218-9.460937 1.472656-20.273437-4.304688-28.875zm0 0"/><path d="m337.722656 172.027344c-3.308594-.707032-6.757812-1.082032-9.972656-1.082032-11.257812 0-19.402344 4.277344-22.941406 12.039063-3.191406 7.007813-2.128906 16.148437 2.65625 22.753906 4.46875 6.152344 11.996094 10.292969 20.132812 11.074219.832032.082031 1.6875.125 2.539063.125 6.925781 0 12.898437-2.558594 16.375-7.011719 3.414062-4.351562 4.230469-10.023437 4.730469-15.007812.636718-6.46875.464843-11.660157-2.433594-15.984375-3.074219-4.589844-8.257813-6.292969-11.085938-6.90625zm0 0"/><path d="m354.878906 75.847656-6.542968-8.523437c-.566407-.742188-1.214844-1.433594-1.929688-2.054688-2.085938-1.820312-4.703125-3.1875-8.492188-4.433593-5.238281-1.710938-10.75-2.578126-16.386718-2.578126-8.347656 0-16.675782 1.933594-24.089844 5.597657l1.984375 9.476562zm0 0"/><path d="m331.601562 335.390625c-2.234374-1.195313-4.789062-1.800781-7.601562-1.800781-2.429688 0-4.59375.464844-5.984375.855468-18.523437 5.207032-25.125 16.355469-25.125 25.050782 0 .402344.015625.816406.039063 1.175781.46875 8.027344 5.925781 15.949219 13.582031 19.714844 3.660156 1.792969 7.882812 2.742187 12.210937 2.742187 4 0 8.089844-.816406 11.816406-2.355468 5.898438-2.425782 12.703126-7.800782 14.113282-15.617188 1.015625-5.6875-1.007813-11.328125-2.984375-16.171875-2.578125-6.296875-5.277344-11.019531-10.066407-13.59375zm0 0"/><path d="m265.871094 198c-2.234375-1.195312-4.792969-1.804688-7.601563-1.804688-2.445312 0-4.605469.46875-5.984375.859376-18.523437 5.207031-25.125 16.367187-25.125 25.074218 0 .394532.015625.800782.039063 1.160156.484375 8.027344 5.941406 15.945313 13.589843 19.707032 3.65625 1.792968 7.878907 2.742187 12.207032 2.742187 4.003906 0 8.09375-.816406 11.8125-2.355469 5.894531-2.417968 12.699218-7.789062 14.113281-15.609374 1.03125-5.714844-1.003906-11.351563-2.980469-16.171876-2.566406-6.292968-5.257812-11.015624-10.070312-13.601562zm0 0"/><path d="m255.746094 280.3125c-3.199219-1.71875-6.878906-2.59375-10.933594-2.59375-3.539062 0-6.679688.679688-8.683594 1.246094-28.265625 7.945312-37.488281 24.929687-36.691406 38.167968.695312 11.671876 8.628906 23.183594 19.746094 28.640626 5.316406 2.613281 11.46875 3.992187 17.789062 3.992187 5.84375 0 11.816406-1.1875 17.273438-3.4375 8.574218-3.535156 18.457031-11.332031 20.484375-22.617187 1.488281-8.269532-1.476563-16.515626-4.375-23.601563-3.042969-7.417969-6.929688-15.671875-14.609375-19.796875zm0 0"/><path d="m241.230469 372.242188c-3.265625-.710938-6.71875-1.085938-9.988281-1.085938-11.273438 0-19.421876 4.277344-22.941407 12.039062-3.191406 7.007813-2.128906 16.148438 2.65625 22.75 4.46875 6.152344 11.996094 10.292969 20.140625 11.078126.820313.078124 1.664063.117187 2.5.117187 6.941406 0 12.917969-2.554687 16.40625-7.007813 3.410156-4.34375 4.230469-10.019531 4.730469-15.007812.636719-6.472656.46875-11.667969-2.433594-15.984375-3.078125-4.585937-8.257812-6.292969-11.070312-6.898437zm0 0"/><path d="m220.015625 97.648438c.554687.035156 1.105469.050781 1.65625.050781 12.140625 0 23.957031-8.765625 27.480469-20.390625l1.875-6.171875-6.445313-.273438c-17.890625-.761719-32.351562-1.234375-45.507812-1.484375l-6.472657-.125 1.515626 6.292969c2.894531 12.015625 13.789062 21.3125 25.898437 22.101563zm0 0"/><path d="m205.164062 264.117188c.648438-6.464844.484376-11.65625-2.425781-16-3.078125-4.574219-8.257812-6.277344-11.070312-6.886719-3.296875-.714844-6.757813-1.09375-10.003907-1.09375-11.253906 0-19.394531 4.277343-22.921874 12.039062-3.195313 7.007813-2.128907 16.148438 2.652343 22.75 4.472657 6.152344 11.996094 10.296875 20.136719 11.078125.832031.082032 1.6875.121094 2.542969.121094 6.917969 0 12.886719-2.550781 16.375-7.007812 3.421875-4.371094 4.226562-10.042969 4.714843-15zm0 0"/><path d="m178.175781 121.480469-9.691406-8.351563c-7.753906-6.683594-17.914063-10.511718-27.871094-10.511718-.355469 0-.710937.003906-1.070312.011718-10.609375.292969-21.136719 4.871094-28.875 12.5625l-9.074219 9.023438 31.179688-1.171875c10.847656-.390625 21.722656-.757813 32.617187-1.128907zm0 0"/><path d="m161.289062 69.164062-8.722656-8.257812c-7.300781-6.914062-17.128906-10.878906-26.960937-10.878906-.808594 0-1.621094.027344-2.429688.082031-10.429687.722656-20.722656 6.179687-27.53125 14.59375l-7.613281 9.40625 12.03125-1.289063c15.539062-1.667968 31.640625-2.742187 49.222656-3.285156zm0 0"/></g><path d="m439.144531 117.757812c-1.503906.101563-3.007812.214844-4.472656.332032-4.542969.347656-9.363281.511718-14.738281.511718-6.601563 0-13.042969-.25-18.476563-.5l-5.765625-.261718.5625 5.742187c.890625 9.140625 7.167969 17.550781 15.625 20.929688 2.867188 1.144531 5.914063 1.722656 9.058594 1.722656 4.496094 0 8.8125-1.191406 12.476562-3.445313 6.328126-3.878906 10.527344-11.027343 10.785157-18.371093l2.957031-7.199219zm0 0" fill="#c67045"/><path d="m348.234375 34.617188c-4.867187 7.742187-2.695313 19.210937 4.742187 25.046874 3.578126 2.800782 8.269532 4.34375 13.207032 4.34375 4.835937 0 9.613281-1.484374 13.449218-4.179687 6.808594-4.785156 11.097657-13.332031 11.195313-22.308594l.054687-5.023437-41.167968-.234375zm0 0" fill="#c67045"/><path d="m340.34375 23.945312c-6.457031-7.613281-16.152344-12.410156-25.9375-12.832031-.488281-.023437-.972656-.03125-1.457031-.03125-10.292969 0-20.507813 4.691407-27.316407 12.550781l-7.117187 8.210938 68.863281.394531zm0 0" fill="#c67045"/><path d="m228.816406 39.199219c2.125 3.46875 4.601563 6.707031 7.367188 9.621093 4.300781 4.527344 8.488281 7.207032 12.792968 8.1875 1.253907.289063 2.566407.4375 3.894532.4375 5.632812 0 11.3125-2.527343 15.574218-6.921874 3.066407-3.148438 5.453126-7.234376 7.097657-12.136719l2.191406-6.550781-53.609375-.296876zm0 0" fill="#c67045"/><path d="m195.316406 12.488281c-1.136718-.191406-2.332031-.292969-3.558594-.292969-4.957031 0-9.785156 1.570313-13.929687 3.042969-2.984375 1.066407-5.867187 2.1875-8.289063 4.183594-1.707031 1.398437-2.988281 3.136719-3.703124 5.023437l-2.554688 6.730469 49.75.296875-3.042969-7.027344c-2.714843-6.28125-8.335937-10.863281-14.671875-11.957031zm0 0" fill="#c67045"/><path d="m126.65625 10.355469c-4.949219-2.417969-10.730469-3.640625-17.191406-3.640625-1.363282 0-2.761719.054687-4.160156.167968-12.65625 1.003907-24.921876 6.359376-34.542969 15.078126l-9.519531 8.632812 81.519531.464844-2.808594-6.921875c-2.335937-5.761719-7.183594-10.785157-13.296875-13.78125zm0 0" fill="#c67045"/><path d="m56.011719 126.082031-5.699219.238281.980469 5.617188c1.28125 7.320312 6.207031 13.863281 12.867187 17.082031 3.074219 1.484375 6.566406 2.265625 10.097656 2.265625 4.503907 0 8.824219-1.222656 12.5-3.539062 6-3.78125 10.136719-10.566406 10.800782-17.707032l.527344-5.683593-5.703126.226562c-12.15625.480469-24.289062.988281-36.371093 1.5zm0 0" fill="#c67045"/><path d="m494.097656 83.742188c-4.402344-1.773438-9.402344-2-13.8125-2.199219l-19.230468-.871094s-.800782.203125-.839844.210937c.007812-.003906.011718-.007812.011718-.015624l-.726562-.269532-5.625-.253906-5.894531-.234375.691406 5.714844c-1.1875 6.945312-5.898437 13.019531-12.347656 15.886719-2.65625 1.179687-5.636719 1.804687-8.613281 1.804687-4.191407 0-8.226563-1.179687-11.664063-3.410156-5.769531-3.75-9.476563-10.371094-9.667969-17.277344l-.132812-4.644531-138.164063-6.28125-20.867187-.929688-.617188 4.425782c-2.765625 11.023437-13.425781 19.308593-24.886718 19.308593-.5 0-1-.015625-1.496094-.046875-11.425782-.75-21.527344-9.886718-23.5-21.257812l-.707032-4.085938-4.148437-.058594c-5.304687-.074218-10.523437-.113281-15.511719-.113281-33.304687 0-62.308594 1.679688-88.667968 5.136719-13.164063 1.722656-28.15625 4.300781-39.464844 13.132812-10.515625 8.203126-17.335938 24.152344-10.550782 36.65625l1.503907 2.773438 3.152343-.164062c.910157-.046876 1.8125-.085938 2.703126-.125l.105468-.003907c19.140625-.839843 39.25-1.667969 59.773438-2.457031l2.421875-.09375 1.425781-1.960938c7.132812-9.800781 18.964844-16.089843 30.878906-16.414062.347656-.007812.691406-.015625 1.03125-.015625 11.441406 0 22.75 5.316406 30.253906 14.21875l1.566407 1.855469 2.421875-.078125c37.9375-1.242188 76.167968-2.304688 113.632812-3.160157 25.628906-.585937 51.316406-1.09375 76.34375-1.507812 1.269532-.023438 2.535156-.03125 3.808594-.03125 8.648438 0 17.308594.433594 25.683594.855469l.183594.007812c8.304687.410157 16.890624.835938 25.394531.835938 5.375 0 10.191406-.167969 14.730469-.515625 4.433593-.339844 9.015624-.691406 13.632812-.691406 7.132812 0 12.792969.847656 17.808594 2.667968 3.679687 1.335938 7.316406 3.578125 10.253906 6.324219l1.046875.976563 1.40625.277343.523437.097657h.367188c.394531.035156.800781.054687 1.214844.054687 9.71875 0 23.050781-10.273437 25.476562-19.628906 2.507813-9.699219-3.011718-20.65625-12.3125-24.425781zm0 0" fill="#935252"/><path d="m476.863281 412.765625c-2.851562-1.089844-6.304687-1.667969-9.984375-1.667969-8.265625 0-16.953125 2.847656-23.84375 7.8125-6.457031 4.652344-12.109375 13.292969-10.1875 22.113282 1.183594 5.433593 5.339844 10.617187 11.40625 14.21875 5.308594 3.160156 11.347656 4.832031 17.46875 4.832031 5.1875 0 10.1875-1.234375 14.457032-3.570313 10.011718-5.480468 15.820312-17.554687 13.515624-28.085937-1.679687-7.660157-6.113281-13.070313-12.832031-15.652344zm0 0" fill="#935252"/><path d="m461.46875 379.644531c2.027344-.242187 4.324219-.515625 6.644531-.867187 9.109375-1.402344 11.480469-9.578125 13.789063-17.515625.199218-.710938.410156-1.425781.628906-2.140625 7.679688-25.652344 9.003906-52.96875 3.832031-79-9.117187-45.816406-37.664062-87.671875-78.3125-114.832032-31.410156-20.988281-67.992187-31.875-118.628906-35.3125-2.464844-.160156-4.898437-.238281-7.21875-.238281-32.199219 0-60.042969 14.308594-83.03125 28.308594-20.761719 12.640625-38.269531 27.710937-52.03125 44.792969-30.167969 37.425781-41.644531 86.152344-29.957031 127.15625 9.550781 33.519531 33.464844 61.421875 54.578125 86.054687l1.480469 1.71875c13.0625 15.261719 26.566406 31.042969 43.261718 42.699219 5.582032 3.894531 13.355469 5.730469 20.859375 7.5l.316407.078125c2.996093.710937 5.824218 1.386719 8.4375 2.183594l34.511718 10.503906.03125-6.710937c.082032-16.0625 9.027344-31.457032 22.785156-39.222657 6.507813-3.664062 14.054688-5.601562 21.828126-5.601562 7.886718 0 15.617187 1.976562 22.347656 5.71875l6.089844 3.382812 1.257812-6.851562c2.34375-12.761719 11.308594-24.109375 22.835938-28.90625 4.347656-1.8125 9.078124-2.730469 14.054687-2.730469 8.460937 0 16.785156 2.671875 23.4375 7.515625l5.066406 3.691406 2.472657-5.761719c3.304687-7.703124 8.9375-14.4375 15.859374-18.964843 7.398438-4.835938 14.863282-5.71875 22.773438-6.648438zm-263.386719-102.378906c-2.921875 3.730469-7.976562 5.871094-13.871093 5.871094-.753907 0-1.5625-.039063-2.390626-.117188-7.304687-.703125-14.027343-4.386719-17.992187-9.859375-4.242187-5.835937-5.164063-13.585937-2.355469-19.742187 2.957032-6.5 10.378906-10.382813 19.847656-10.382813 3.019532 0 6.289063.378906 9.707032 1.117188 4.105468.894531 7.382812 2.898437 9.226562 5.644531 2.398438 3.570313 2.507813 8.191406 1.933594 14.027344-.472656 4.757812-1.179688 9.710937-4.105469 13.441406zm53.664063 117.570313c-.472656 4.757812-1.175782 9.71875-4.101563 13.449218-2.921875 3.730469-7.980469 5.871094-13.875 5.871094-.75 0-1.558593-.039062-2.390625-.117188-7.300781-.703124-14.027344-4.386718-17.988281-9.855468-2.554687-3.523438-3.960937-7.847656-3.960937-12.167969 0-2.65625.554687-5.273437 1.601562-7.578125 2.953125-6.5 10.371094-10.382812 19.84375-10.382812 3.019531 0 6.289062.378906 9.71875 1.121093 4.097656.882813 7.367188 2.886719 9.21875 5.640625 2.539062 3.78125 2.429688 8.972656 1.933594 14.019532zm20.03125-71.652344c-1.535156 8.566406-8.515625 16.183594-18.675782 20.371094-5.074218 2.097656-10.644531 3.203124-16.109374 3.203124-5.890626 0-11.589844-1.273437-16.484376-3.675781-10.335937-5.082031-17.433593-15.335937-18.074218-26.125-.507813-8.390625 3.140625-16.257812 10.546875-22.753906 6.0625-5.328125 14.570312-9.714844 23.964843-12.351563 2.664063-.75 5.292969-1.132812 7.816407-1.132812 3.585937 0 6.804687.753906 9.566406 2.234375 6.496094 3.484375 10.210937 10.851563 13.253906 18.292969 2.734375 6.699218 5.539063 14.472656 4.195313 21.9375zm4.191406-95.945313c-1.015625 5.613281-5.609375 10.609375-12.300781 13.367188-3.355469 1.386719-7.042969 2.121093-10.667969 2.121093-3.898438 0-7.664062-.839843-10.898438-2.429687-6.808593-3.339844-11.484374-10.085937-11.910156-17.183594-.328125-5.582031 2.007813-10.609375 6.945313-14.949219 4.03125-3.539062 9.703125-6.460937 15.960937-8.222656 1.753906-.488281 3.480469-.738281 5.132813-.738281 2.34375 0 4.433593.488281 6.226562 1.449219 4.238281 2.273437 6.6875 7.148437 8.707031 12.082031 1.820313 4.441406 3.6875 9.59375 2.804688 14.503906zm31.574219-43.011719c2.957031-6.5 10.375-10.378906 19.84375-10.378906 3.023437 0 6.289062.375 9.71875 1.117188 4.097656.886718 7.367187 2.886718 9.214843 5.644531 2.542969 3.78125 2.433594 8.972656 1.9375 14.015625-.472656 4.761719-1.175781 9.722656-4.105468 13.449219-2.921875 3.734375-7.976563 5.875-13.871094 5.875-.753906 0-1.5625-.039063-2.390625-.117188-7.304687-.703125-14.03125-4.390625-17.996094-9.859375-4.238281-5.839844-5.164062-13.585937-2.351562-19.746094zm34.144531 180.40625c-1.003906 5.609376-5.601562 10.609376-12.277344 13.371094-3.367187 1.382813-7.0625 2.113282-10.679687 2.113282-3.902344 0-7.667969-.839844-10.898438-2.429688-3.347656-1.640625-6.246093-4.148438-8.382812-7.253906-2.097657-3.046875-3.316407-6.484375-3.527344-9.9375-.339844-5.574219 1.996094-10.601563 6.933594-14.9375 4.042969-3.542969 9.714843-6.464844 15.964843-8.226563 1.75-.492187 3.480469-.738281 5.136719-.738281 2.34375 0 4.4375.484375 6.230469 1.449219 4.238281 2.273437 6.6875 7.148437 8.703125 12.074219 1.816406 4.453124 3.679687 9.617187 2.796875 14.515624zm53.386719-90.761718c-.859375 8.636718-2.25 18.453125-7.890625 25.644531-5.671875 7.238281-15.429688 11.390625-26.765625 11.390625-1.515625 0-3.046875-.074219-4.570313-.226562-13.917968-1.332032-26.753906-8.371094-34.339844-18.824219-8.125-11.21875-9.894531-26.121094-4.507812-37.957031 4.191406-9.214844 12.507812-15.535157 24.046875-18.277344 4.4375-1.054688 9.339844-1.585938 14.578125-1.585938 5.804688 0 11.769531.652344 17.738281 1.941406 7.933594 1.714844 14.292969 5.621094 17.902344 10.996094 4.953125 7.386719 4.757813 17.296875 3.808594 26.898438zm26.035156 90.574218c-3.902344 0-7.667969-.835937-10.898437-2.425781-6.808594-3.34375-11.484376-10.089843-11.910157-17.1875-.332031-5.589843 2.003907-10.617187 6.949219-14.949219 4.027344-3.539062 9.695312-6.460937 15.957031-8.222656 1.746094-.492187 3.472657-.742187 5.128907-.742187 2.308593 0 4.464843.5 6.222656 1.441406 4.242187 2.28125 6.695312 7.160156 8.710937 12.085937 1.898438 4.65625 3.679688 9.613282 2.800781 14.515626-1.007812 5.609374-5.601562 10.605468-12.289062 13.363281-3.355469 1.390625-7.046875 2.121093-10.671875 2.121093zm0 0" fill="#935252"/><path d="m397.773438 458.183594c-2.105469-.574219-4.449219-.867188-6.964844-.867188-10.238282 0-20.269532 4.695313-23.109375 6.136719-2.785157 1.417969-6.640625 3.75-7.976563 7.609375-1.144531 3.320312-.175781 7.398438 2.53125 10.632812 2.503906 2.996094 6.082032 4.992188 9.238282 6.542969 7.84375 3.882813 14.339843 5.691407 20.4375 5.691407.765624 0 1.535156-.027344 2.28125-.085938 8.5625-.652344 16.015624-5.710938 18.542968-12.585938 1.574219-4.304687 1.359375-8.59375-.609375-12.382812-2.53125-4.933594-7.902343-8.929688-14.371093-10.691406zm0 0" fill="#935252"/><path d="m315.425781 495.355469c1.644531.539062 3.390625.816406 5.195313.816406 5.441406 0 10.804687-2.535156 13.984375-6.613281 2.730469-3.488282 4.066406-8.195313 3.574219-12.59375-.609376-5.511719-4.027344-10.648438-8.902344-13.394532-2.625-1.492187-5.585938-2.277343-8.554688-2.277343-3.160156 0-6.292968.886719-9.058594 2.566406-5.441406 3.320313-8.542968 9.101563-8.289062 15.464844.28125 7.183593 5.234375 13.773437 12.050781 16.03125zm0 0" fill="#935252"/><path d="m20.804688 73.304688c9.902343 5.144531 28.488281 6.523437 33.953124 6.824218l2.289063 1.785156 2.691406-1.121093c8.800781-3.65625 18.628907-5.289063 27.953125-6.507813.742188-.101562 1.476563-.191406 2.214844-.28125l3.589844-.449218 1.238281-2.1875c5.8125-10.296876 17.058594-17.464844 28.652344-18.261719.730469-.050781 1.480469-.078125 2.222656-.078125 11.019531 0 22.015625 5.484375 28.703125 14.308594l1.539062 2.03125 2.546876-.050782c5.824218-.113281 11.921874-.171875 18.109374-.171875 30.800782 0 61.703126 1.402344 91.585938 2.757813l21.558594.976562 1.5-1.6875c8.589844-6.402344 19.382812-9.925781 30.40625-9.925781 5.316406 0 10.5.816406 15.417968 2.425781 2.085938.683594 5.132813 1.820313 7.445313 3.824219 1.519531 1.328125 2.59375 2.933594 3.105469 4.644531l1.015625 3.402344 112.171875 5.09375 1.566406-1.621094c4.757812-4.921875 7.289062-12.101562 6.949219-19.695312-.378907-8.667969-4.433594-16.394532-10.835938-20.660156-8.746093-5.839844-20.230469-5.90625-29.46875-5.960938l-41.042969-.238281-.058593 4.972656c-.089844 8.058594-3.890625 15.695313-9.90625 19.921875-3.363281 2.355469-7.53125 3.652344-11.730469 3.652344-4.257812 0-8.296875-1.324219-11.363281-3.722656-5.261719-4.125-7.550781-12.050782-5.324219-18.429688l2.300781-6.609375-77.492187-.4375-1.027344 3.675781c-1.492188 5.339844-3.84375 9.691406-6.992188 12.933594-3.707031 3.824219-8.582031 6.019531-13.371093 6.019531-1.121094 0-2.210938-.121093-3.273438-.375-3.722656-.851562-7.410156-3.246093-11.28125-7.320312-3.527343-3.707031-6.519531-7.917969-8.890625-12.515625l-1.386718-2.691406-181.332032-1.046876c-1.050781-.007812-2.109375-.015624-3.167968-.015624-6.402344 0-13.808594.207031-20.660157 2.65625-8.5 3.050781-14.585937 9.429687-15.886719 16.660156-1.289062 7.207031 2.472657 17.632812 13.765626 23.496094zm0 0" fill="#f7b36f"/><path d="m20.03125 174.28125c9.113281 4.621094 19.667969 4.996094 28.980469 5.328125 39.222656 1.414063 79.453125 2.304687 119.578125 2.640625l1.875.015625 1.429687-1.265625c8.589844-7.625 18.089844-14.738281 28.230469-21.148438 22.265625-14.089843 49.230469-28.605468 80.386719-29.496093.949219-.023438 1.898437-.039063 2.851562-.039063 2.46875 0 4.984375.085938 7.464844.257813 50.851563 3.5625 87.613281 14.921875 119.195313 36.824219 3.164062 2.199218 6.414062 4.617187 9.667968 7.183593l1.589844 1.257813 1.988281-.222656c10.59375-1.1875 20.222657-2.667969 29.429688-4.519532 6.871093-1.367187 14.765625-3.1875 21.421875-7.464844 7.042968-4.519531 11.734375-11.730468 12.246094-18.832031.800781-11.375-8.4375-20.972656-17.980469-24.574219-3.953125-1.492187-8.132813-1.515624-12.082031-2.769531-1.257813-.398437-2.382813-1.292969-3.75-1.015625-1.710938.351563-3.136719 2.285156-3.824219 3.820313-1.027344 2.308593-1.277344 4.914062-2.179688 7.277343-1.171875 3.066407-3.363281 5.527344-5.714843 7.679688-2.234376 2.042969-4.359376 4.425781-6.902344 6.042969-3.144532 2.011719-7.042969 3.117187-10.980469 3.117187-2.742187 0-5.496094-.539062-7.957031-1.558594-5.199219-2.148437-8.679688-6.808593-13.246094-9.921874-1.3125-.890626-2.644531-1.804688-3.613281-3.054688-1.46875-1.886719-1.972657-4.339844-3.113281-6.441406-4.746094-8.746094-16.214844-6.46875-24.644532-6.46875-1.246094 0-2.492187.011718-3.734375.03125-26.191406.453125-52 .976562-76.710937 1.566406-3.15625.070312-6.3125.152344-9.480469.234375l-.394531.007813c-48.089844 1.183593-97.429688 2.722656-146.660156 4.570312-11.128907.414062-22.3125.855469-33.5 1.3125l-4.558594.1875-.261719 4.726562c-.371094 6.71875-4.109375 13.34375-9.535156 16.890626-3.132813 2.058593-7.027344 3.1875-10.960938 3.1875-3.117187 0-6.171875-.703126-8.828125-2.035157-5.996094-3.007812-10.457031-9.402343-11.367187-16.292969l-.625-4.726562-4.589844.226562-3.867187.175782c-8.234376.375-16.746094.761718-24.570313 4.140625-8.527344 3.691406-14.644531 11.074219-15.59375 18.816406-1.332031 10.875 6.789063 20.238281 14.890625 24.328125zm0 0" fill="#f7b36f"/><path d="m495.972656 79.105469c-5.183594-2.09375-10.640625-2.339844-15.457031-2.558594l-10.007813-.457031c2.652344-4.980469 3.992188-10.855469 3.722657-16.96875-.453125-10.257813-5.335938-19.457032-13.054688-24.605469-9.996093-6.671875-22.316406-6.742187-32.21875-6.800781l-57.140625-.328125c-6.445312-.039063-12.898437-.078125-19.347656-.113281-4.921875-13.777344-19.738281-23.78125-35.628906-23.78125-.199219 0-.402344 0-.605469.003906-14.558594.230468-29.339844 8.242187-39.539063 21.429687-.449218.582031-.738281 1.234375-.898437 1.90625-12.699219-.074219-25.394531-.148437-38.09375-.222656-6.328125-.035156-12.671875-.070313-19.011719-.109375-.042968-.085938-.070312-.179688-.121094-.265625-3.871093-6.667969-8.269531-13.488281-15.636718-17.175781-5.355469-2.679688-11.964844-3.355469-18.605469-1.902344-5.070313 1.109375-10.113281 3.335938-15.867187 7.015625-3.699219 2.363281-8.683594 6.140625-10.226563 11.980469-3.832031-.023438-7.664063-.046875-11.496094-.070313-.050781-.167969-.085937-.335937-.152343-.503906-6.53125-15.753906-24.027344-26.035156-42.597657-25.007813-15.863281.878907-31.585937 9.515626-43.136719 23.699219-.308593.378907-.53125.796875-.710937 1.226563-4.445313.011718-8.890625.035156-13.367187.007812-8-.046875-17.058594-.097656-25.539063 2.941406-10.175781 3.644532-17.5 11.492188-19.113281 20.472657-1.605469 8.957031 2.832031 21.796875 16.386718 28.828125 6.976563 3.621094 17.363282 5.511718 25.691407 6.488281-10.695313 8.921875-17.515625 24.683594-12.660157 38.351563-4.300781.601562-8.640624 1.589843-12.804687 3.324218-10.261719 4.277344-17.371094 12.714844-18.550781 22.019532-1.636719 12.863281 7.972656 23.761718 17.589844 28.453124 10.015624 4.882813 21.570312 5.28125 30.851562 5.601563 35.960938 1.246094 72.375 2.039063 108.460938 2.410156-4.953126 4.90625-9.574219 10.011719-13.84375 15.308594-31.164063 38.671875-42.996094 89.121094-30.871094 131.660156 9.855468 34.582031 34.148437 62.925781 55.585937 87.929688l1.484375 1.730469c13.292969 15.519531 27.042969 31.570312 44.195313 43.539062 6.355469 4.4375 14.972656 6.476562 22.574219 8.28125 3.03125.714844 5.894531 1.394531 8.449218 2.171875l35.058594 10.664063c.480469.148437.96875.21875 1.457031.21875 1.1875 0 2.359375-.429688 3.28125-1.230469 1.300781-1.132813 1.925781-2.851563 1.65625-4.554688-2.511719-15.851562 5.808594-33.074219 19.789063-40.957031 13.980468-7.878906 33.023437-6.085938 45.289062 4.269531 1.519532 1.285157 3.660156 1.542969 5.445313.660157 1.785156-.882813 2.875-2.746094 2.773437-4.734376-.683594-13.46875 7.855469-27.011718 20.308594-32.195312 12.457031-5.183594 28.082031-1.710938 37.164062 8.265625 1.246094 1.371094 3.148438 1.9375 4.945313 1.472656 1.792969-.460937 3.183594-1.878906 3.613281-3.683593 2.203125-9.25 8.027344-17.539063 15.988282-22.742188 6.410156-4.1875 12.992187-4.964844 20.613281-5.863281 2.195312-.257813 4.46875-.527344 6.816406-.886719 12.277344-1.882812 15.488281-12.953125 17.832031-21.035156.207032-.714844.410156-1.425782.621094-2.128906 7.917969-26.445313 9.28125-54.59375 3.949219-81.40625-7.742188-38.929688-29.121094-75.054688-59.871094-102.175782 6.996094-.925781 13.632813-1.992187 20.070313-3.234375 7.285156-1.40625 15.675781-3.285156 22.996093-7.820312 8.480469-5.25 13.914063-13.449219 14.539063-21.929688.316406-4.304687-.597656-8.375-2.355469-12.058593 10.621094-2.890626 22.066406-12.714844 24.601563-22.507813 3.121093-12.050781-3.726563-25.648437-15.269532-30.316406zm-114.6875-40.609375c1.59375-.070313 3.191406-.128906 4.785156-.191406-2.007812 7.382812-8.054687 13.511718-15.027343 14.953124-7.746094 1.597657-16.300781-3-18.671875-10.039062-.582032-1.726562-.761719-3.425781-.5625-4.96875 9.875.390625 19.722656.664062 29.476562.246094zm-64.890625-25c10.359375-.164063 20.382813 5.578125 25.050781 13.714844-17.75-.101563-35.5-.203126-53.257812-.308594 7.992188-8.3125 18.222656-13.246094 28.207031-13.40625zm-71.640625 23.945312c7.855469.171875 15.710938.230469 23.566406.234375-1.292968 3.136719-4.089843 5.914063-7.667968 7.472657-5 2.183593-10.503906 1.839843-14.242188 1.167968-3.632812-.652344-6.144531-1.75-7.671875-3.355468-1.308593-1.378907-2.109375-3.332032-2.773437-5.707032 2.929687.0625 5.859375.125 8.789062.1875zm-70.910156-14.84375c4.730469-3.019531 8.742188-4.824218 12.617188-5.671875 4.417968-.964843 8.679687-.582031 12 1.078125 3.410156 1.707032 6.117187 4.863282 8.496093 8.429688-12.535156-.074219-25.074219-.144532-37.621093-.21875 1.257812-1.433594 3.046874-2.679688 4.507812-3.617188zm-69.300781-12.042968c12.730469-.699219 25.160156 5.65625 31.0625 15.464843-13.589844-.078125-27.164063-.15625-40.691407-.234375-5.613281-.03125-11.253906.089844-16.867187-.097656-1.628906-.054688-3.257813-.074219-4.882813-.101562 9.105469-9.007813 20.25-14.414063 31.378907-15.03125zm-81.429688 58.316406c-6.550781-3.398438-12.484375-10.738282-11.148437-18.183594.96875-5.386719 5.929687-10.421875 12.644531-12.828125 6.820313-2.441406 14.597656-2.398437 22.109375-2.351563 13.933594.078126 27.867188.160157 41.800781.242188 27 .15625 54 .308594 81 .464844 18.722657.109375 37.394531.433594 56.078125.816406.910156 4 2.28125 9.019531 5.894532 12.816406 3.046874 3.203125 7.347656 5.269532 13.148437 6.3125 2.476563.441406 4.910156.664063 7.265625.664063 4.601562 0 8.925781-.84375 12.746094-2.511719 7.167968-3.125 12.390625-9.148438 13.972656-16.109375.042969-.183594.050781-.371094.070312-.554687 13.03125-.070313 26.0625-.253907 39.09375-.363282 7.96875-.066406 15.984376.214844 24.003907.546875-.230469 2.789063.136719 5.71875 1.101562 8.578125 3.4375 10.199219 14.027344 17.160156 25.023438 17.160156 1.714843 0 3.4375-.171874 5.144531-.523437 11.675781-2.40625 21.269531-12.734375 23.328125-25.113281 7.699219-.238282 15.398437-.386719 23.101563-.316406 11.515624.105468 26.136718-1.457032 36.132812 5.214843 5.082031 3.390625 8.304688 9.644531 8.617188 16.726563.277343 6.269531-1.773438 12.085937-5.546876 15.996094-.5625.582031-5.316406-.242188-6.078124-.277344-5.34375-.242188-10.6875-.484375-16.03125-.726563-15.097657-.6875-30.191407-1.371093-45.285157-2.058593-11.46875-.519532-22.746093-1.558594-34.078125-2.273438-.027344-.035156-.042968-.074219-.070312-.105469-10.585938-12.554687-27.3125-19.1875-43.609375-17.316406-10.691407 1.226563-21.078125 6.042969-29.25 13.5625-.386719.359375-.683594.769531-.929688 1.203125-5.015625-.210938-10.03125-.425781-15.046875-.652344-4.824218-.21875-9.652344-.4375-14.476562-.652344-31.976563-1.414062-64.105469-3.023437-96.144532-2.550781-4.921874-12.75-19.195312-21.414062-33.84375-20.078125-13.824218 1.257813-26.675781 10.59375-33.542968 24.367188-.054688.109375-.082032.222656-.128906.335937-11.132813 1.453125-22.242188 3.636719-32.355469 7.847657-.773438-.601563-1.726563-.984376-2.78125-1.042969-10.746094-.59375-24.773438-2.554688-31.929688-6.265625zm421.15625 26.082031c-2.785156 2.898437-6.789062 4.878906-11.285156 5.578125-6.207031.96875-12.949219-.683594-18.011719-4.421875-4.246094-3.132813-7.433594-7.820313-8.886718-12.925781 14.09375.644531 28.1875 1.285156 42.28125 1.925781.027343 3.46875-1.453126 7.089844-4.097657 9.84375zm-102.691406-25.441406c-14.335937-.320313-28.667969-.789063-42.996094-1.335938 4.992188-2.914062 10.5-4.800781 16.097657-5.445312 9.320312-1.066407 19.066406 1.515625 26.898437 6.78125zm-141.941406 4.132812c11.296875.148438 22.566406.460938 33.773437.894531 3.316406.128907 6.632813.277344 9.949219.433594-1.414063 4.875-5.167969 8.875-7.550781 11.019532-2.542969 2.292968-4.917969 3.867187-7.265625 4.8125-4.953125 2-11.167969 1.660156-17.054688-.933594-3.96875-1.75-7.160156-4.214844-9.230469-7.136719-1.964843-2.777344-2.910156-6.109375-2.621093-9.089844zm-52.996094-9.695312c-12.070313.371093-24.128906 1.070312-36.15625 2.234375-2.585937.25-5.203125.496094-7.839844.757812 5.589844-7.539062 13.773438-12.59375 22.109375-13.351562 8.75-.800782 17.519532 3.601562 21.886719 10.359375zm334.816406 217.152343c5.015625 25.214844 3.730469 51.699219-3.71875 76.585938-.21875.730469-.433593 1.472656-.648437 2.210938-2.566406 8.851562-4.363282 13.113281-9.746094 13.9375-2.171875.335937-4.355469.589843-6.46875.839843-8.132812.957031-16.539062 1.949219-24.914062 7.425781-7.835938 5.121094-14.039063 12.605469-17.722657 21.1875-11.972656-8.71875-28.648437-11.074218-42.359375-5.363281-13.335937 5.550781-23.226562 18.460938-25.828125 32.625-14.941406-8.308593-33.988281-8.597656-49.054687-.101562-15.519532 8.746093-25.246094 25.917969-25.339844 43.542969l-28.085938-8.542969c-2.851562-.867188-5.863281-1.582031-9.054687-2.335938-7.0625-1.675781-14.363281-3.40625-19.15625-6.75-16.109375-11.242187-29.4375-26.800781-42.324219-41.84375l-1.484375-1.734375c-20.769531-24.226562-44.308593-51.683594-53.5625-84.164062-11.246093-39.464844-.117187-86.460938 29.042969-122.644532 13.398438-16.628906 30.46875-31.320312 50.738281-43.660156 22.628907-13.78125 49.65625-27.582031 80.429688-27.582031 2.273437 0 4.578125.078125 6.894531.234375 49.699219 3.363281 85.527344 13.996094 116.179688 34.476562 39.5625 26.433594 67.332031 67.132813 76.183593 111.65625zm-2.429687-137.84375c-.382813 5.21875-4.148438 10.644532-9.832032 14.160157-5.875 3.640625-13.210937 5.265625-19.625 6.503906-9.042968 1.742187-18.515624 3.140625-28.878906 4.269531-3.207031-2.445312-6.492187-4.808594-9.863281-7.058594-32.183594-21.503906-69.519531-32.652343-121.054687-36.140624-36.441407-2.453126-67.558594 13.167968-93.203126 28.78125-10.394531 6.328124-19.988281 13.261718-28.738281 20.738281-39.46875-.3125-79.449219-1.15625-118.859375-2.519531-8.773437-.304688-18.710937-.648438-26.820312-4.601563-6.71875-3.277344-13.015625-10.578125-12.046875-18.199219.71875-5.675781 5.617187-11.191406 12.476562-14.050781 5.558594-2.316406 12.144531-3.367187 18.15625-3.347656 1.386719.007812 2.773438-.023438 4.164063-.070313.777344 5.316406 3.410156 10.410156 7.472656 14.289063 4.339844 4.144531 10.210938 6.839843 16.53125 7.582031 1.195312.140625 2.394531.210938 3.597656.210938 6.425782 0 12.882813-1.980469 18.152344-5.640626 6.195312-4.300781 10.785156-10.945312 12.628906-18.253906 9.835938-.925781 19.695313-1.503906 29.667969-1.867187 51.632813-1.867188 104.015625-3.417969 155.691406-4.601563 25.347657-.582031 51.023438-1.085937 76.320313-1.5 7.640625-.128906 15.214844.222656 22.792968.542969 2.835938 7.035156 7.488282 13.222656 13.464844 17.898437 6.414063 5.015626 13.753906 7.71875 20.871094 7.71875.644531 0 1.285156-.023437 1.921875-.066406 12.472656-.867187 24.003906-10.597656 28.699219-24.214844.128906-.375.199218-.757812.238281-1.132812 3.894531.148438 7.746094.675781 11.46875 2.082031 7.535156 2.734375 15.21875 10.144531 14.605469 18.488281zm-424.066406-12.117187c1.574218-.113281 3.144531-.21875 4.71875-.3125 6.550781-.394531 13.109374-.625 19.667968-.695313 4.289063-.046874 8.78125.359376 13.183594.425782-1.59375 3.75-4.238281 7.074218-7.578125 9.390625-4.28125 2.972656-9.703125 4.328125-14.875 3.714843-4.183594-.492187-8.015625-2.226562-10.800781-4.882812-2.191406-2.09375-3.707032-4.832031-4.316406-7.640625zm63.0625-12.835937c1.144531-1.328126 2.644531-2.480469 3.75-3.242188 9.542968-6.539062 24.335937-10.222656 35.890624-3.710938 2.378907 1.339844 4.292969 2.996094 5.597657 4.792969-15.085938.441407-30.234375 1.492188-45.238281 2.160157zm281.019531 4.566406c2.335937.054687 4.671875.089844 7.015625.070312 10.488281-.066406 20.976562-.078125 31.464844-.027344 1.605468.007813 3.214843-.03125 4.832031-.082031-3.769531 8.546875-11.316407 14.6875-19.035157 15.226563-5.226562.363281-10.894531-1.609375-15.9375-5.554688-3.382812-2.644531-6.210937-5.925781-8.339843-9.632812zm102.523437-15.953125c-1.949218 7.535156-14.480468 16.703125-21.625 15.824219-.050781-.007813-.101562 0-.152344-.003907-3.523437-3.285156-7.714843-5.832031-11.960937-7.371093-11-3.988282-22.976563-3.074219-33.542969-2.265626-12.960937.992188-26.539062.316407-39.664062-.335937-9.765625-.484375-19.859375-.988281-29.820313-.824219-25.316406.414063-51.015625.921875-76.382812 1.5-16.703125.386719-33.410157.804688-50.109375 1.257813-16.382813.445312-33.160156 2.078125-49.527344 1.457031-4.8125-.183594-9.644531-.238281-14.488281-.214844-1.726563-5.300781-5.839844-9.988281-11.71875-13.304687-13.457031-7.582031-31.691407-5.945313-46.453125 4.179687-6.082032 4.167969-8.558594 8.445313-9.40625 11.992188-20.632813.917968-41.390625 1.855468-61.808594 2.746094-.933594.042968-1.882812.082031-2.84375.128906-5.457031-10.039063.460938-23.488282 9.222656-30.328125 10.3125-8.050781 24.53125-10.476563 37.046875-12.113281 33.347657-4.371094 67.394531-5.835938 101.273438-5.691407-.28125 5.121094 1.296875 10.449219 4.496093 14.960938 3.113282 4.398437 7.730469 8.03125 13.351563 10.507812 4.621094 2.035157 9.460937 3.0625 14.121094 3.0625 3.753906 0 7.394531-.664062 10.714843-2.003906 3.445313-1.394531 6.789063-3.570313 10.214844-6.65625 4.347656-3.917969 9.527344-10.0625 11.003906-17.925781 21.191407 1.152344 42.367188 2.675781 63.574219 3.640625 0 0 73.179688 3.320312 73.734375 3.347656 1.636719.074219 3.273438.148437 4.90625.222656 1.53125 8.527344 6.335938 16.300781 13.316406 21.449219 5.871094 4.332031 13.058594 6.652344 20.3125 6.652344 1.726563 0 3.457032-.128906 5.171876-.398438 6.644531-1.03125 12.667968-4.0625 16.960937-8.53125 4.296875-4.476562 6.785156-10.441406 6.894531-16.320312 7.226563.328125 14.457032.660156 21.6875.976562 4.207032.191406 8.5625.390625 12.160156 1.84375 6.9375 2.804688 11.214844 11.292969 9.339844 18.539063zm0 0"/><path d="m478.65625 408.101562c-13.09375-5.007812-29.15625-.011718-38.542969 6.753907-7.777343 5.605469-14.554687 16.195312-12.152343 27.226562 1.496093 6.878907 6.375 13.082031 13.734374 17.460938 6.140626 3.65625 13.152344 5.503906 20.027344 5.503906 5.9375 0 11.769532-1.378906 16.851563-4.160156 12.082031-6.605469 18.8125-20.714844 16-33.539063-2.054688-9.394531-7.5625-16.050781-15.917969-19.246094zm-4.882812 44.015626c-7.914063 4.332031-18.5 3.875-26.960938-1.164063-4.882812-2.90625-8.191406-6.914063-9.082031-11-1.429688-6.566406 3.265625-13.410156 8.230469-16.988281 9.917968-7.144532 22.15625-8.191406 29.121093-5.523438 5.132813 1.960938 8.40625 6.015625 9.726563 12.042969 1.847656 8.449219-2.894532 18.179687-11.035156 22.632813zm0 0"/><path d="m399.097656 453.363281c-10.816406-2.960937-24.476562.96875-33.65625 5.628907-.003906 0-.003906 0-.003906 0-2.050781 1.046874-8.300781 4.21875-10.441406 10.453124-1.707032 4.957032-.398438 10.878907 3.414062 15.449219 3.074219 3.6875 7.21875 6.027344 10.871094 7.832031 8.507812 4.203126 15.78125 6.203126 22.636719 6.203126.898437 0 1.792969-.035157 2.679687-.101563 10.484375-.808594 19.667969-7.175781 22.851563-15.847656 2.070312-5.636719 1.773437-11.308594-.855469-16.410157-3.167969-6.140624-9.707031-11.078124-17.496094-13.207031zm8.964844 26.171875c-1.832031 4.984375-7.683594 8.816406-14.238281 9.324219-5.785157.445313-12.171875-1.175781-20.113281-5.097656-2.851563-1.410157-5.746094-3.023438-7.621094-5.269531-1.535156-1.84375-2.195313-4.171876-1.636719-5.796876.554687-1.617187 2.359375-3.183593 5.515625-4.785156 7.171875-3.644531 18.414062-7.109375 26.488281-4.902344 5.0625 1.382813 9.371094 4.503907 11.25 8.144532 1.328125 2.582031 1.449219 5.402344.355469 8.382812zm0 0"/><path d="m331.738281 459.207031c-7.160156-4.046875-15.640625-3.90625-22.675781.386719-7.007812 4.273438-11.003906 11.71875-10.683594 19.917969.355469 9.234375 6.726563 17.703125 15.480469 20.585937 2.230469.738282 4.542969 1.089844 6.851563 1.089844 6.816406 0 13.566406-3.09375 17.832031-8.546875 3.566406-4.558594 5.246093-10.476563 4.609375-16.230469-.785156-7.070312-5.160156-13.664062-11.414063-17.203125zm-1.070312 27.273438c-3.058594 3.910156-8.9375 5.683593-13.675781 4.121093-4.800782-1.578124-8.425782-6.410156-8.621094-11.480468-.179688-4.523438 2.027344-8.632813 5.894531-10.992188 3.898437-2.375 8.589844-2.453125 12.546875-.21875 3.457031 1.957032 5.96875 5.726563 6.398438 9.605469.351562 3.132813-.601563 6.484375-2.542969 8.964844zm0 0"/><path d="m266.207031 280.414062c-3.328125-2.472656-7.386719-4.15625-12.40625-5.15625-24.707031-4.902343-50.710937 11.46875-55.648437 35.050782-2.863282 13.671875 2.703125 28.140625 13.539062 35.191406 8.214844 5.34375 18.222656 5.964844 25.035156 5.964844h.023438c5.871094 0 13.535156-.40625 20.78125-3.550782 9.863281-4.28125 17.628906-13.3125 20.773438-24.15625 2.882812-9.929687 1.855468-21.339843-2.820313-31.304687-2.492187-5.3125-5.527344-9.253906-9.277344-12.039063zm2.496094 40.554688c-2.328125 8.019531-7.992187 14.664062-15.15625 17.769531-4.339844 1.886719-9.519531 2.726563-16.804687 2.726563-.003907 0-.007813 0-.011719 0-5.542969-.003906-13.601563-.453125-19.585938-4.347656-7.339843-4.773438-11.210937-15.1875-9.203125-24.761719 3.785156-18.09375 24.71875-31.105469 43.90625-27.289063 3.539063.703125 6.285156 1.804688 8.394532 3.375 2.359374 1.75 4.4375 4.53125 6.1875 8.257813 3.65625 7.796875 4.484374 16.640625 2.273437 24.269531zm0 0"/><path d="m204.734375 274.972656c6.050781-8.960937 5.804687-21.601562-.585937-30.050781-7.34375-9.707031-21.097657-13.027344-33.449219-8.078125-11.519531 4.617188-17.835938 14.71875-16.492188 26.367188 1.328125 11.476562 11.226563 21.554687 23.027344 23.445312 1.441406.230469 2.890625.339844 4.335937.339844 9.164063.003906 18.101563-4.523438 23.164063-12.023438zm-8.285156-5.597656c-3.671875 5.4375-10.921875 8.480469-17.632813 7.40625-7.410156-1.1875-13.855468-7.652344-14.675781-14.71875-1.210937-10.480469 7.5625-14.847656 10.277344-15.9375 6.691406-2.683594 16.351562-2.316406 21.753906 4.828125 3.832031 5.066406 3.949219 12.984375.277344 18.421875zm0 0"/><path d="m262.382812 190.90625c-11.457031-1.660156-23.074218 4.046875-29.535156 9.441406-7.035156 5.878906-10.898437 14.179688-10.332031 22.207032.519531 7.308593 4.761719 14.394531 11.355469 18.960937 5.417968 3.753906 12.355468 5.863281 20.0625 6.097656.433594.015625.863281.023438 1.289062.023438 10.03125 0 18.316406-3.660157 22.867188-10.140625 1.78125-2.535156 3.054687-5.554688 4.011718-9.503906 2.464844-10.191407 1.183594-19.777344-3.613281-26.980469-3.746093-5.628907-9.3125-9.121094-16.105469-10.105469zm10 34.734375c-.652343 2.6875-1.4375 4.628906-2.476562 6.105469-2.734375 3.894531-8.574219 6.085937-15.664062 5.871094-4.027344-.121094-9.839844-.972657-14.675782-4.320313-4.0625-2.816406-6.773437-7.199219-7.074218-11.449219-.335938-4.757812 2.257812-10.054687 6.769531-13.824218 5.261719-4.394532 14.007812-8.332032 21.6875-7.222657 4.015625.582031 7.027343 2.460938 9.214843 5.75 3.1875 4.789063 3.996094 11.746094 2.21875 19.089844zm0 0"/><path d="m314.066406 217.683594c4.796875 2.710937 10.238282 4.082031 15.636719 4.082031 4.484375 0 8.933594-.945313 12.949219-2.855469 9.300781-4.417968 15.722656-13.75 16.359375-23.769531.660156-10.355469-5.214844-20.765625-14.28125-25.320313-7.28125-3.652343-22.277344-6.492187-31.351563-.976562-8.640625 5.25-14.730468 17.964844-13.574218 28.34375.910156 8.183594 6.375 16.039062 14.261718 20.496094zm4.507813-40.296875c4.746093-2.882813 15.734375-1.609375 21.667969 1.371093 5.5 2.761719 9.195312 9.382813 8.789062 15.746094-.402344 6.355469-4.691406 12.535156-10.671875 15.375-5.957031 2.835938-13.382813 2.488282-19.371094-.898437-5.140625-2.90625-8.683593-7.847657-9.246093-12.898438-.714844-6.414062 3.578124-15.5 8.832031-18.695312zm0 0"/><path d="m372.953125 227.328125c-20.296875-3.84375-48.539063 2.78125-60.914063 22.621094-8.269531 13.257812-8.425781 30.691406-.394531 43.382812 4.246094 6.707031 10.761719 12.402344 19.363281 16.921875 9.316407 4.890625 19.214844 7.453125 28.742188 7.453125.597656 0 1.191406-.007812 1.785156-.027343 11.375-.386719 21.976563-4.476563 29.859375-11.523438 9.84375-8.796875 15.617188-22.789062 15.441407-37.425781-.136719-11.585938-3.890626-21.949219-10.566407-29.175781-7.226562-7.824219-16.671875-10.96875-23.316406-12.226563zm11.777344 71.371094c-6.050781 5.410156-14.625 8.683593-23.535157 8.984375-8.34375.277344-17.171874-1.890625-25.535156-6.285156-7.03125-3.695313-12.269531-8.207032-15.5625-13.414063-5.929687-9.367187-5.753906-22.832031.425782-32.746094 7.480468-11.992187 27.738281-22.40625 50.570312-18.085937 7.304688 1.382812 13.636719 4.644531 17.832031 9.1875 4.996094 5.40625 7.804688 13.398437 7.914063 22.507812.136718 11.789063-4.386719 22.949219-12.109375 29.851563zm0 0"/><path d="m393.460938 339.140625c-2.167969 10.742187 2.488281 22.234375 11.59375 28.59375 4.882812 3.410156 10.894531 5.148437 16.929687 5.148437 4.738281 0 9.496094-1.074218 13.730469-3.253906 9.738281-5.007812 15.738281-13.890625 16.453125-24.367187.730469-10.730469-4.308594-20.980469-13.488281-27.417969-7.078126-4.964844-16.128907-5.816406-24.832032-2.34375-10.316406 4.121094-18.320312 13.402344-20.386718 23.640625zm9.800781 1.976563c1.394531-6.910157 7.140625-13.472657 14.292969-16.328126 1.667968-.667968 4.144531-1.402343 6.953124-1.402343 2.648438 0 5.59375.65625 8.429688 2.644531 6.285156 4.40625 9.746094 11.34375 9.253906 18.550781-.472656 6.898438-4.5 12.785157-11.054687 16.15625-6.417969 3.304688-14.597657 2.820313-20.355469-1.203125-5.796875-4.050781-8.890625-11.621094-7.519531-18.417968zm0 0"/><path d="m317.207031 328.355469c-14.933593 1.65625-29.78125 19.746093-28.375 34.5625.625 6.574219 4.339844 11.660156 7.347657 14.773437 6.410156 6.628906 15.390624 10.226563 24.269531 10.226563 4.203125 0 8.382812-.804688 12.261719-2.476563 12.609374-5.441406 20.351562-19.945312 17.628906-33.015625-2.847656-13.6875-19.269532-25.601562-33.132813-24.070312zm11.542969 47.902343c-8.199219 3.535157-18.871094 1.214844-25.382812-5.519531-2.679688-2.773437-4.308594-5.882812-4.582032-8.765625-.886718-9.351562 10.0625-22.628906 19.523438-23.675781 8.792968-.976563 20.433594 7.484375 22.242187 16.167969 1.757813 8.449218-3.535156 18.226562-11.800781 21.792968zm0 0"/><path d="m222.429688 366.734375c-9.757813 1.347656-16.972657 7.664063-19.792969 17.328125-3.148438 10.796875.097656 22.132812 8.269531 28.878906 4.1875 3.457032 9.640625 5.738282 15.769531 6.59375 1.644531.230469 3.28125.34375 4.894531.34375 9.988282 0 19.089844-4.3125 24.019532-11.652344 5.550781-8.269531 5.816406-17.679687.734375-25.820312-6.671875-10.679688-21.242188-17.414062-33.894531-15.671875zm24.859374 35.917969c-4.101562 6.105468-12.613281 7.90625-19.226562 6.980468-4.296875-.601562-8.027344-2.125-10.789062-4.402343-5.167969-4.265625-7.097657-11.300781-5.035157-18.367188 1.742188-5.964843 5.628907-9.402343 11.558594-10.222656 8.691406-1.195313 19.484375 3.761719 24.046875 11.066406 3.03125 4.855469 2.84375 9.882813-.554688 14.945313zm0 0"/></svg>