<svg width="524" height="310" xmlns="http://www.w3.org/2000/svg">
 <!-- Created with Method Draw - http://github.com/duopixel/Method-Draw/ -->
 <g>
  <title>background</title>
  <rect fill="none" id="canvas_background" height="312" width="526" y="-1" x="-1"/>
  <g display="none" overflow="visible" y="0" x="0" height="100%" width="100%" id="canvasGrid">
   <rect fill="url(#gridpattern)" stroke-width="0" y="0" x="0" height="100%" width="100%"/>
  </g>
 </g>
 <g>
  <title>Layer 1</title>
  <path d="m156.75,250.158468c-1,0 -1.61731,-0.076111 -2,-1c-0.541199,-1.306549 -1,-2 -1,-3c0,-1 0,-2 0,-3c0,-1 0,-2 0,-3c0,-1 1.292892,-1.292908 2,-2c0.707108,-0.707092 1,-1 2,-1c1,0 2,-1 3,-1c1,0 2,0 3,0c1,0 2.076126,-0.38269 3,0c1.306564,0.541199 1,2 1,3l1,1l1,1" id="svg_6" stroke-width="1.5" stroke="#969696" fill="none"/>
  <path d="m258.75,264.158468c0,-1 0,-2 0,-3c0,-1 0,-2 0,-3c0,-1 -0.38269,-2.076111 0,-3c0.541199,-1.306549 2,-1 2,-2c0,-1 0.292908,-2.292908 1,-3c0.707092,-0.707092 0.693451,-1.458801 2,-2c0.923889,-0.38269 1.458801,-0.693451 2,-2c0.38269,-0.923889 0.292908,-1.292908 1,-2c0.707092,-0.707092 0,-2 0,-3c0,-1 1.292908,-1.292908 2,-2c0.707092,-0.707092 0.61731,-1.076111 1,-2c0.541199,-1.306549 2.458801,-1.693451 3,-3c0.38269,-0.923889 1.076111,-1.61731 2,-2c1.306549,-0.541199 1.852722,-1.173096 3,-2c1.813995,-1.307465 3,-2 4,-3c1,-1 2.458801,-0.693451 3,-2c0.38269,-0.923889 1,-1 2,-1c1,0 1.076111,-0.61731 2,-1c1.306549,-0.541199 2.076111,-0.61731 3,-1c1.306549,-0.541199 1.693451,-1.458801 3,-2c0.923889,-0.38269 2.076111,-0.61731 3,-1c1.306549,-0.541199 1.149353,-1.474274 2,-2c1.9021,-1.175568 2,-2 2,-3c0,-1 0,-2 0,-3c0,-1 0.38269,-2.076111 0,-3c-0.541199,-1.306549 -1.693451,-3.458801 -3,-4c-0.923889,-0.38269 -2.076111,-0.61731 -3,-1c-1.306549,-0.541199 -2,-2 -3,-2c-1,0 -2,0 -3,0c-1,0 -2,0 -3,0c-1,0 -2,0 -3,0c-1,0 -2.292908,-0.707092 -3,0c-0.707092,0.707092 -1,2 -2,2c-1,0 -2,1 -3,1c-1,0 -1.823761,1.486267 -4,2c-0.973236,0.229767 -2.292908,0.292908 -3,1c-0.707092,0.707092 -2.076111,-0.38269 -3,0c-1.306549,0.541199 -1,2 -2,2c-1,0 -1.693451,0.458801 -3,1c-0.923889,0.38269 -2,1 -3,1c-1,0 -1.076111,0.61731 -2,1c-1.306549,0.541199 -2.076111,0.61731 -3,1c-1.306549,0.541199 -2,1 -3,1c-1,0 -1,1 -2,1c-1,0 -0.693451,1.458801 -2,2c-0.923889,0.38269 -1.292908,0.292908 -2,1c-0.707092,0.707092 -1.292908,0.292908 -2,1c-0.707092,0.707092 -2.292908,-0.707092 -3,0c-0.707092,0.707092 -1,2 -2,2c-1,0 -2,0 -3,0c-2,0 -2,-1 -3,-1c-2,0 -3,-1 -4,-1c-1,0 -1.693436,-0.458801 -3,-1c-0.923874,-0.38269 -2.026749,0.229767 -3,0c-2.176254,-0.513733 -2.292892,-1.292908 -3,-2c-0.707108,-0.707092 -1,-1 -2,-1c-1,0 -1.693436,-1.458801 -3,-2c-0.923874,-0.38269 -2.076126,0.38269 -3,0c-1.306564,-0.541199 -1.693436,-1.458801 -3,-2c-0.923874,-0.38269 -1.076126,-0.61731 -2,-1c-1.306564,-0.541199 -2.292892,-0.292908 -3,-1c-0.707108,-0.707092 -1,-1 -2,-1c-1,0 -2,0 -3,-1c-1,-1 -2.076126,-0.61731 -3,-1c-1.306564,-0.541199 -2,-1 -3,-2c-1,-1 -2,-1 -3,-2c-1,-1 -2.292892,-2.292908 -3,-3c-0.707108,-0.707092 -1.292892,-0.292908 -2,-1c-0.707108,-0.707092 -0.097885,-1.824432 -2,-3c-0.850647,-0.525726 -2.292892,-0.292908 -3,-1c-0.707108,-0.707092 -0.292892,-2.292908 -1,-3c-0.707108,-0.707092 -1.824432,-0.0979 -3,-2c-0.525726,-0.850647 -0.292892,-1.292908 -1,-2c-0.707108,-0.707092 -1.076126,-0.61731 -2,-1c-1.306564,-0.541199 -1.824432,-1.0979 -3,-3c-0.525726,-0.850647 -0.097885,-2.824432 -2,-4c-0.850647,-0.525726 -2.076126,-0.61731 -3,-1c-1.306564,-0.541199 -2,-1 -3,-1c-1,0 -2.076126,-0.38269 -3,0c-1.306564,0.541199 -1.693436,2.458801 -3,3c-0.923874,0.38269 -1,1 -1,2c0,1 0,2 0,3c0,1 0,2 0,3c0,1 0,2 0,3c0,1 -0.229752,2.026764 0,3c0.513748,2.176239 1.693436,4.458801 3,5c0.923874,0.38269 1.292892,0.292908 2,1c0.707108,0.707092 1,2 2,2c1,0 1.076126,0.61731 2,1c1.306564,0.541199 2,1 3,2c1,1 1.292892,1.292908 2,2c1.414215,1.414215 2.076126,0.61731 3,1c1.306564,0.541199 1.076126,1.61731 2,2c1.306564,0.541199 1.076126,1.61731 2,2c1.306564,0.541199 1,2 2,2c1,0 1,1 2,1c1,0 2.292892,0.292908 3,1c0.707108,0.707092 1.292892,1.292908 2,2c0.707108,0.707092 1.076126,0.61731 2,1c1.306564,0.541199 2,1 3,2l1,0" id="svg_7" stroke-width="1.5" stroke="#969696" fill="none"/>
  <path d="m168.75,237.158468c-1,0 -1.486252,-0.823761 -2,-3c-0.229752,-0.973236 -0.693436,-2.458801 -2,-3c-0.923874,-0.38269 -1.61731,-1.076111 -2,-2c-0.541199,-1.306549 -2,-1 -2,-2c0,-1 -1,-2 -1,-3c0,-1 0,-2 0,-3c0,-1 0,-2 0,-3c0,-1 0,-2 1,-2c1,0 1,-1 2,-1c1,0 2,-1 3,-1c1,0 2,0 3,0c1,0 2.076126,-0.38269 3,0c1.306564,0.541199 1.693436,2.458801 3,3c0.923874,0.38269 1.693436,1.458801 3,2c0.923874,0.38269 1.693436,1.458801 3,2c0.923874,0.38269 2,1 3,1l1,0" id="svg_8" stroke-width="1.5" stroke="#969696" fill="none"/>
  <polyline stroke-linecap="round" id="svg_9" points="325.75,239.1584815979004 325.75,239.1584815979004 326.75,239.1584815979004 326.75,238.1584815979004 327.75,237.1584815979004 328.75,237.1584815979004 328.75,236.1584815979004 329.75,236.1584815979004 329.75,235.1584815979004 330.75,235.1584815979004 331.75,235.1584815979004 332.75,234.1584815979004 332.75,233.1584815979004 333.75,232.1584815979004 334.75,231.1584815979004 335.75,230.1584815979004 336.75,229.1584815979004 337.75,228.1584815979004 338.75,227.1584815979004 339.75,226.1584815979004 340.75,225.1584815979004 341.75,224.1584815979004 341.75,223.1584815979004 341.75,222.1584815979004 342.75,222.1584815979004 342.75,221.1584815979004 342.75,220.1584815979004 342.75,219.1584815979004 342.75,218.1584815979004 343.75,217.1584815979004 344.75,217.1584815979004 344.75,216.1584815979004 345.75,216.1584815979004 345.75,215.1584815979004 345.75,214.1584815979004 345.75,213.1584815979004 346.75,213.1584815979004 346.75,212.1584815979004 347.75,211.1584815979004 348.75,210.1584815979004 349.75,209.1584815979004 350.75,208.1584815979004 351.75,208.1584815979004 351.75,207.1584815979004 351.75,206.1584815979004 352.75,206.1584815979004 352.75,205.1584815979004 353.75,205.1584815979004 354.75,204.1584815979004 354.75,203.1584815979004 355.75,202.1584815979004 355.75,201.1584815979004 356.75,199.1584815979004 356.75,198.1584815979004 357.75,197.1584815979004 358.75,197.1584815979004 359.75,196.1584815979004 359.75,195.1584815979004 360.75,194.1584815979004 361.75,194.1584815979004 361.75,193.1584815979004 361.75,192.1584815979004 361.75,191.1584815979004 361.75,190.1584815979004 361.75,189.1584815979004 362.75,189.1584815979004 362.75,188.1584815979004 362.75,187.1584815979004 363.75,186.1584815979004 363.75,185.1584815979004 363.75,184.1584815979004 363.75,183.1584815979004 364.75,183.1584815979004 364.75,182.1584815979004 364.75,181.1584815979004 365.75,180.1584815979004 365.75,179.1584815979004 366.75,178.1584815979004 366.75,177.1584815979004 366.75,176.1584815979004 366.75,175.1584815979004 366.75,174.1584815979004 366.75,173.1584815979004 366.75,172.1584815979004 366.75,171.1584815979004 367.75,170.1584815979004 367.75,169.1584815979004 367.75,168.1584815979004 368.75,168.1584815979004 368.75,167.1584815979004 369.75,166.1584815979004 369.75,165.1584815979004 370.75,164.1584815979004 " opacity="0.5" stroke-width="1.5" stroke="#969696" fill="none"/>
  <polyline stroke-linecap="round" id="svg_10" points="327.75,240.1584815979004 328.75,240.1584815979004 329.75,240.1584815979004 330.75,240.1584815979004 331.75,239.1584815979004 333.75,238.1584815979004 333.75,237.1584815979004 334.75,237.1584815979004 334.75,236.1584815979004 336.75,235.1584815979004 336.75,234.1584815979004 336.75,233.1584815979004 337.75,232.1584815979004 337.75,231.1584815979004 338.75,231.1584815979004 338.75,230.1584815979004 339.75,229.1584815979004 340.75,228.1584815979004 340.75,227.1584815979004 341.75,226.1584815979004 341.75,225.1584815979004 342.75,224.1584815979004 343.75,224.1584815979004 343.75,223.1584815979004 343.75,222.1584815979004 344.75,221.1584815979004 345.75,220.1584815979004 345.75,219.1584815979004 346.75,219.1584815979004 347.75,218.1584815979004 347.75,217.1584815979004 348.75,217.1584815979004 348.75,216.1584815979004 348.75,215.1584815979004 349.75,214.1584815979004 349.75,213.1584815979004 350.75,212.1584815979004 350.75,211.1584815979004 351.75,211.1584815979004 351.75,210.1584815979004 352.75,209.1584815979004 352.75,208.1584815979004 353.75,207.1584815979004 353.75,206.1584815979004 354.75,205.1584815979004 355.75,204.1584815979004 355.75,203.1584815979004 356.75,202.1584815979004 356.75,201.1584815979004 357.75,200.1584815979004 357.75,199.1584815979004 358.75,197.1584815979004 358.75,196.1584815979004 359.75,195.1584815979004 359.75,194.1584815979004 359.75,193.1584815979004 360.75,192.1584815979004 361.75,191.1584815979004 361.75,190.1584815979004 361.75,189.1584815979004 361.75,188.1584815979004 362.75,188.1584815979004 362.75,187.1584815979004 363.75,186.1584815979004 363.75,185.1584815979004 364.75,184.1584815979004 364.75,183.1584815979004 364.75,182.1584815979004 365.75,181.1584815979004 365.75,180.1584815979004 366.75,179.1584815979004 366.75,178.1584815979004 366.75,177.1584815979004 366.75,176.1584815979004 367.75,176.1584815979004 367.75,175.1584815979004 367.75,174.1584815979004 367.75,173.1584815979004 367.75,172.1584815979004 367.75,171.1584815979004 367.75,170.1584815979004 367.75,169.1584815979004 367.75,168.1584815979004 367.75,167.1584815979004 367.75,166.1584815979004 367.75,165.1584815979004 367.75,164.1584815979004 367.75,163.1584815979004 367.75,162.1584815979004 367.75,161.1584815979004 367.75,160.1584815979004 367.75,159.1584815979004 367.75,158.1584815979004 367.75,157.1584815979004 367.75,156.1584815979004 367.75,155.1584815979004 367.75,154.1584815979004 367.75,153.1584815979004 367.75,152.1584815979004 368.75,151.1584815979004 369.75,150.1584815979004 369.75,149.1584815979004 369.75,148.1584815979004 369.75,147.1584815979004 369.75,146.1584815979004 369.75,145.1584815979004 369.75,144.1584815979004 369.75,143.1584815979004 369.75,142.1584815979004 369.75,141.1584815979004 369.75,140.1584815979004 369.75,139.1584815979004 369.75,137.1584815979004 369.75,136.1584815979004 369.75,135.1584815979004 369.75,134.1584815979004 369.75,133.1584815979004 369.75,132.1584815979004 369.75,131.1584815979004 369.75,130.1584815979004 369.75,128.1584815979004 369.75,127.15846633911133 369.75,126.15846633911133 369.75,125.15846633911133 369.75,124.15846633911133 369.75,123.15846633911133 369.75,122.15846633911133 369.75,121.15846633911133 369.75,120.15846633911133 369.75,119.15846633911133 369.75,118.15846633911133 369.75,117.15846633911133 369.75,116.15846633911133 369.75,115.15846633911133 369.75,114.15846633911133 369.75,113.15846633911133 369.75,112.15846633911133 369.75,111.15846633911133 369.75,110.15846633911133 368.75,109.15846633911133 367.75,109.15846633911133 367.75,108.15846633911133 366.75,107.15846633911133 366.75,106.15846633911133 366.75,105.15846633911133 366.75,104.15846633911133 366.75,103.15846633911133 366.75,102.15846633911133 366.75,101.15846633911133 365.75,101.15846633911133 365.75,100.15846633911133 364.75,99.15846633911133 364.75,98.15846633911133 364.75,97.15846633911133 363.75,97.15846633911133 363.75,96.15846633911133 363.75,95.15846633911133 362.75,94.15846633911133 362.75,93.15846633911133 362.75,92.15846633911133 362.75,91.15846633911133 362.75,90.15846633911133 362.75,89.15846633911133 362.75,88.15846633911133 362.75,87.15846633911133 361.75,87.15846633911133 361.75,86.15846633911133 361.75,85.15846633911133 " opacity="0.5" stroke-width="1.5" stroke="#969696" fill="none"/>
  <path d="m325.75,240.158468c1,-1 1,-2 2,-3c1,-1 1.292908,-2.292908 2,-3c0.707092,-0.707092 0.693451,-1.458801 2,-2c0.923889,-0.38269 1.824432,-0.0979 3,-2c0.525726,-0.850647 1.292908,-2.292908 2,-3c0.707092,-0.707092 1.292908,-1.292908 2,-2c0.707092,-0.707092 1.458801,-0.693451 2,-2c0.38269,-0.923889 0.292908,-2.292908 1,-3c0.707092,-0.707092 2.292908,-0.292908 3,-1c0.707092,-0.707092 0.693451,-2.458801 2,-3c0.923889,-0.38269 1.292908,-0.292908 2,-1c0.707092,-0.707092 0.173096,-1.852722 1,-3c1.307465,-1.813995 2,-2 2,-3c0,-1 0.61731,-3.076111 1,-4c0.541199,-1.306549 1.458801,-1.693451 2,-3c0.38269,-0.923889 0.61731,-2.076111 1,-3c0.541199,-1.306549 1.486267,-1.823761 2,-4c0.229767,-0.973236 1,-2 1,-3c0,-1 -0.306549,-2.458801 1,-3c0.923889,-0.38269 1,-1 1,-2c0,-1 0.292908,-2.292908 1,-3c0.707092,-0.707092 1,-1 1,-2c0,-1 1.458801,-0.693451 2,-2c0.38269,-0.923889 0,-2 0,-3c0,-2 1,-4 1,-5c0,-1 0,-2 0,-3c0,-1 0,-2 1,-3c1,-1 1,-2 1,-3c0,-1 0,-2 0,-3c0,-1 -0.707092,-2.292892 0,-3c0.707092,-0.707108 1,-2 1,-3c0,-1 1,-2 1,-3c0,-1 0.458801,-1.693436 1,-3c0.38269,-0.923874 0,-2 0,-3c0,-1 1,-1 1,-2c0,-1 0,-2 0,-3c0,-2 0,-3 0,-4c0,-1 0,-2 0,-3c0,-1 0,-2 0,-3c0,-1 0,-2 0,-3c0,-1 0,-2 0,-3c0,-1 0,-2 0,-3c0,-1 0,-3 0,-4c0,-1 -0.458801,-1.693436 -1,-3c-0.38269,-0.923874 0.38269,-2.076126 0,-3c-0.541199,-1.306564 -1,-2 -1,-3c0,-1 -0.292908,-1.292892 -1,-2c-0.707092,-0.707108 -0.458801,-1.693436 -1,-3c-0.38269,-0.923874 -0.458801,-1.693436 -1,-3c-0.38269,-0.923874 0.38269,-2.076126 0,-3c-0.541199,-1.306564 -2,-2 -2,-3c0,-1 -0.458801,-1.693436 -1,-3c-0.38269,-0.923874 -1,-2 -1,-3c0,-1 -0.31073,-1.080246 -1,-4c-0.513733,-2.176254 -1,-3 -1,-4c0,-1 -0.292908,-1.292892 -1,-2c-0.707092,-0.707108 0.38269,-2.076126 0,-3c-0.541199,-1.306564 -1.61731,-2.076126 -2,-3c-0.541199,-1.306564 -1.0979,-1.824432 -3,-3c-0.850647,-0.525726 -2.149353,-1.474274 -3,-2c-1.9021,-1.175568 -2,-3 -3,-4c-1,-1 -1.292908,-1.292892 -2,-2c-0.707092,-0.707108 -0.917603,-1.386871 -2,-4c-0.38269,-0.923874 -0.292908,-2.292892 -1,-3c-0.707092,-0.707108 -2.458801,-0.693436 -3,-2c-0.38269,-0.923874 -0.61731,-2.076126 -1,-3c-0.541199,-1.306564 -1.292908,-1.292892 -2,-2c-0.707092,-0.707108 -1.458801,-0.693436 -2,-2c-0.38269,-0.923882 -0.770233,-2.026749 -1,-3c-0.513733,-2.176254 -1.227997,-6.277092 -3,-10c-2.148865,-4.514687 -4,-8 -4,-9l-1,-1l0,-1l-1,-1" id="svg_11" stroke-width="1.5" stroke="#969696" fill="none"/>
  <path d="m153.75,238.158468c0,0 0.22975,-1.02676 0,-2c-0.51375,-2.17624 -1,-3 -2,-4c-1,-1 -0.61731,-2.07611 -1,-3c-0.5412,-1.30655 -1,-2 -1,-3c0,-1 0,-2 0,-3c0,-1 0,-2 0,-3c0,-1 0,-2 0,-3c0,-1 -1,-2 -1,-3c0,-1 -0.07613,-1.61731 -1,-2c-1.30656,-0.5412 -1,-2 -1,-3c0,-1 0,-2 0,-3c0,-1 0,-3 0,-4c0,-1 0,-2 0,-3c0,-1 0,-2 0,-3c0,-1 0,-2 0,-3c0,-1 -0.4588,-1.69345 -1,-3c-0.38269,-0.92389 -0.4588,-1.69345 -1,-3c-0.38269,-0.92389 0,-2 0,-3c0,-1 0,-2 0,-3c0,-1 0,-2 0,-3c0,-1 -0.70711,-2.29289 0,-3c0.70711,-0.70711 1,-1 1,-3c0,-1 0,-2 1,-3c1,-1 1,-2 1,-3c0,-1 0,-2 0,-3c0,-1 0,-2 0,-3c0,-1 0,-2 0,-3c0,-1 0,-2 0,-3c0,-1 0,-2 0,-3c0,-1 0,-2 0,-3c0,-1 0,-2 0,-3c0,-1 1.41422,-2.58578 0,-4c-0.70711,-0.70711 -1,-1 -1,-2c0,-2 0,-3 0,-4c0,-1 -0.4588,-1.69344 -1,-3c-0.38269,-0.92387 0,-2 0,-3c0,-1 0,-2 0,-3c0,-1 0,-2 0,-3c0,-1 0,-2 0,-3c0,-1 0,-2 0,-3c0,-1 0,-2 0,-3c0,-1 2,-3 2,-4c0,-1 0.61731,-2.07613 1,-3c0.5412,-1.30656 2.4588,-2.69344 3,-4c0.38269,-0.92387 1.4588,-1.69344 2,-3c0.38269,-0.92387 0.29289,-1.29289 1,-2c0.70711,-0.70711 0.4588,-1.69344 1,-3c0.38269,-0.92387 0.29289,-2.29289 1,-3c0.70711,-0.70711 2.1731,-0.85274 3,-2c1.30745,-1.814 1.61731,-2.07613 2,-3c0.5412,-1.30656 2.4588,-1.69344 3,-3c0.38269,-0.92387 0.61731,-1.07613 1,-2c0.5412,-1.30656 0.69344,-2.4588 2,-3c0.92387,-0.38269 0.61731,-1.07613 1,-2c0.5412,-1.30656 1.4588,-1.69344 2,-3c0.38269,-0.92387 -0.38269,-2.07613 0,-3c0.5412,-1.30656 1.29289,-1.29289 2,-2c0.70711,-0.70711 0.4588,-1.69344 1,-3c0.38269,-0.92387 0.07613,-1.61731 1,-2c1.30656,-0.5412 1,-2 1,-3c0,-1 0.61731,-2.07613 1,-3c0.5412,-1.30656 2.29289,-1.29289 3,-2c0.70711,-0.70711 0.61731,-2.07613 1,-3c0.5412,-1.30656 1.4588,-1.69344 2,-3c0.38269,-0.92388 1,-2 2,-3c1,-1 1.29289,-1.29289 2,-2c0.70711,-0.70711 1,-1 1,-2c0,-1 0,-2 0,-3c0,-1 0.61731,-2.07612 1,-3c0.5412,-1.30656 0.29289,-2.29289 1,-3c0.70711,-0.70711 2.4588,-0.69344 3,-2c0.38269,-0.92388 1.4588,-1.69344 2,-3c0.38269,-0.92388 0.29289,-2.29289 1,-3c0.70711,-0.70711 2,-1 2,-2c0,-1 0.69344,-1.4588 2,-2c0.92387,-0.38268 1.07613,-0.61732 2,-1c1.30656,-0.5412 2.07613,-1.61732 3,-2c1.30656,-0.5412 1.29289,-2.29289 2,-3c0.70711,-0.70711 1.29289,-0.29289 2,-1c0.70711,-0.70711 1,-1 2,-1c1,0 2.07613,0.38268 3,0c1.30656,-0.5412 2,-2 4,-2c1,0 1,-1 2,-2c1,-1 1.61731,-1.07612 2,-2c0.5412,-1.30656 2.07613,-0.61732 3,-1c1.30656,-0.5412 1,-2 2,-2c1,0 2,0 3,0c1,0 0.82375,-1.48626 3,-2c0.97324,-0.22975 2,-1 3,-1c1,0 2,-1 3,-1c1,0 2,0 3,0c1,0 2,0 3,0c1,0 2,0 3,0c1,0 2,0 3,0c1,0 2,0 3,0c1,0 2,0 3,0c1,0 2,0 3,0c1,0 2,0 3,0c2,0 2.69345,0.4588 4,1c0.92389,0.38268 1.29291,0.29289 2,1c0.70709,0.70711 2.07611,-0.38268 3,0c1.30655,0.5412 2.07611,0.61732 3,1c1.30655,0.5412 2,2 3,2c1,0 1.29291,0.29289 2,1c0.70709,0.70711 1.29291,0.29289 2,1c0.70709,0.70711 1.29291,0.29289 2,1c0.70709,0.70711 1.61731,0.07612 2,1c0.5412,1.30656 2,1 3,1c1,0 2.07611,0.61732 3,1c1.30655,0.5412 2,1 3,1c1,0 1.07611,0.61732 2,1c1.30655,0.5412 2.29291,0.29289 3,1c0.70709,0.70711 1,1 2,1c1,0 1.29291,0.29289 2,1c0.70709,0.70711 1.29291,0.29289 2,1c0.70709,0.70711 2.07611,0.61732 3,1c1.30655,0.5412 2.29291,0.29289 3,1c0.70709,0.70711 1,1 2,1c1,0 1.61731,0.07612 2,1c0.5412,1.30656 2,1 3,1c1,0 1.69345,0.4588 3,1c0.92389,0.38268 1.61731,1.07612 2,2c0.5412,1.30656 1.07611,1.61732 2,2c1.30655,0.5412 1,2 1,3c0,1 1,2 1,3c0,1 1,1 1,2c0,1 1.48627,0.82375 2,3c0.22977,0.97325 1,2 1,3c0,1 1.4588,0.69344 2,2c0.38269,0.92388 0.69254,2.186 2,4c0.8269,1.14727 0.29291,2.29289 1,3c0.70709,0.70711 1,1 1,2c0,1 1,2 1,3c0,1 1.07611,1.61731 2,2c1.30655,0.5412 2.4588,1.69344 3,3c0.38269,0.92387 0.29291,1.29289 1,2c0.70709,0.70711 1,1 2,2c1,1 1.29291,2.29289 2,3c0.70709,0.70711 0.69345,1.4588 2,2c0.92389,0.38269 1.29291,0.29289 2,1c0.70709,0.70711 0.69345,2.4588 2,3c0.92389,0.38269 1,1 2,2c1,1 1.61731,1.07613 2,2c0.5412,1.30656 1.29291,2.29289 2,3c0.70709,0.70711 0.69345,1.4588 2,2c0.92389,0.38269 1,1 1,2c0,1 0,2 0,3c0,1 0,2 0,3c0,1 0.29291,1.29289 1,2c0.70709,0.70711 0.29291,1.29289 1,2c0.70709,0.70711 0.77023,1.02675 1,2c0.51373,2.17625 1.4588,2.69344 2,4c0.38269,0.92387 -0.38269,2.07613 0,3c0.5412,1.30656 1,2 1,3c0,1 -0.30655,2.4588 1,3c0.92389,0.38269 1,1 1,2c0,1 0,2 0,3c0,1 0,2 0,3c0,1 0,2 0,3c0,1 0,2 0,3c0,1 0,2 0,3c0,1 0,2 0,3c0,1 0.70709,2.29289 0,3c-0.70709,0.70711 -0.29291,2.29289 -1,3c-0.70709,0.70711 -1,1 -1,2c0,1 0,2 0,3c0,1 -0.4588,1.69344 -1,3c-0.38269,0.92387 -1,1 -1,2c0,1 -0.4588,1.69344 -1,3c-0.38269,0.92387 -0.29291,1.29289 -1,2c-0.70709,0.70711 0,2 0,3c0,1 0,2 0,3c0,1 0,2 0,3c0,1 0,3 0,4c0,1 0,2 0,3c0,1 0,2 0,3c0,1 0,2 0,3c0,1 0,2 0,3c0,1 -0.61731,1.07613 -1,2c-0.5412,1.30655 -2,1 -2,2c0,1 -0.61731,1.07611 -1,2c-0.5412,1.30655 -1.07611,1.61731 -2,2c-1.30655,0.5412 -0.61731,2.07611 -1,3c-0.5412,1.30655 -0.77023,2.02676 -1,3c-0.51373,2.17624 -1,3 -2,5c-1,2 -0.69254,3.186 -2,5c-0.8269,1.14728 -0.29291,2.29291 -1,3c-0.70709,0.70709 -0.29291,1.29291 -1,2c-0.70709,0.70709 -0.61731,1.07611 -1,2c-0.5412,1.30655 -2,1 -2,2c0,1 -0.4588,1.69345 -1,3c-0.38269,0.92389 -0.61731,1.07611 -1,2c-0.5412,1.30655 -1.29291,1.29291 -2,2c-0.70709,0.70709 -1,1 -1,2c0,1 -1,2 -2,3c-1,1 -2.48627,1.82376 -3,4c-0.22977,0.97324 -1.07611,1.61731 -2,2c-1.30655,0.5412 -2,2 -3,3c-1,1 -2.07611,1.61731 -3,2c-1.30655,0.5412 -2,1 -2,2l-1,1l0,1" id="svg_14" stroke-width="1.5" stroke="#969696" fill="none"/>
  <path d="m191.75,110.158468c0,0 0,0 -1,0c-1,0 -2,0 -3,0c-1,0 -2,0 -3,0c-1,0 -0.61731,-1.076126 -1,-2c-0.541199,-1.306564 -1.61731,-2.076126 -2,-3c-0.541199,-1.306564 -1.292892,-1.292892 -2,-2c-0.707108,-0.707108 -0.61731,-2.076126 -1,-3c-0.541199,-1.306564 -1,-2 -1,-3c0,-1 0,-2 0,-3c0,-1 0,-2 0,-3c0,-1 0,-2 0,-3c0,-1 0,-2 0,-3c0,-1 0,-2 0,-3c0,-1 0,-2 0,-3c0,-1 0,-2 0,-3c0,-1 1.292892,-1.292892 2,-2c0.707108,-0.707108 1.076126,-0.61731 2,-1c1.306564,-0.541199 2.458801,-0.693436 3,-2c0.38269,-0.923874 0.292892,-2.292892 1,-3c0.707108,-0.707108 2.076126,-0.61731 3,-1c1.306564,-0.541199 0.292892,-2.292892 1,-3c0.707108,-0.707108 2.458801,-0.693436 3,-2c0.38269,-0.923874 1.076126,-1.61731 2,-2c1.306564,-0.541199 2,-2 2,-3c0,-1 0.693436,-2.458801 2,-3c0.923874,-0.38269 1,-1 2,-1c1,0 1.076126,-0.61731 2,-1c1.306564,-0.541199 2.292892,-0.292892 3,-1c0.707108,-0.707108 1,-1 2,-1c1,0 1.693436,-0.458801 3,-1c0.923874,-0.382683 1,-1 2,-1c1,0 2,0 3,0c1,0 1,-1 2,-1c1,0 2,0 3,0c1,0 2,0 3,0c1,0 2,0 3,0c1,0 1.292892,0.292892 2,1c0.707108,0.707108 1.292892,0.292892 2,1c0.707108,0.707108 1.292892,0.292892 2,1c0.707092,0.707108 0.693451,1.458801 2,2c0.923889,0.38269 2.292908,0.292892 3,1c0.707092,0.707108 1,1 2,2c1,1 1.474274,2.149353 2,3c1.175568,1.902115 2.824432,1.097885 4,3c0.525726,0.850647 1.292908,1.292892 2,2c0.707092,0.707108 1,1 1,2c0,1 0,2 0,3c0,1 0,2 0,3c0,1 0,2 0,3c0,1 0,2 0,3c0,1 0,2 0,3c0,1 0,2 0,3c0,1 -0.458801,1.693436 -1,3c-0.38269,0.923874 -0.852722,2.173096 -2,3c-1.813995,1.307449 -2.458801,1.693436 -3,3c-0.38269,0.923874 -0.0979,2.824432 -2,4c-0.850647,0.525726 -1.458801,0.693436 -2,2c-0.38269,0.923874 -1.458801,1.693436 -2,3c-0.38269,0.923874 -1.076111,0.61731 -2,1c-1.306549,0.541199 -1.693451,1.458801 -3,2c-0.923874,0.38269 -1.076126,0.61731 -2,1c-1.306564,0.541199 -1.292892,1.292892 -2,2c-0.707108,0.707108 -1.693436,0.458801 -3,1c-0.923874,0.38269 -2.458801,-0.306564 -3,1c-0.38269,0.923874 -0.693436,1.458801 -2,2c-0.923874,0.38269 -2,0 -3,1c-1,1 -2,2 -3,2c-1,0 -2,0 -3,0c-1,0 -2,1 -3,1c-1,0 -2,0 -3,0c-1,0 -2,0 -3,0c-1,0 -2,0 -3,0c-1,0 -2,0 -3,0c-1,0 -2,0 -3,0c-1,0 -2,0 -3,0c-1,0 -2.149353,-0.474274 -3,-1c-1.902115,-1.175568 -1.234634,-2.152237 -2,-4c-0.541199,-1.306564 -2.458801,-0.693436 -3,-2c-0.38269,-0.923874 -1.097885,-2.824432 -3,-4c-0.850647,-0.525726 -1.458801,-0.693436 -2,-2c-0.38269,-0.923874 0,-2 0,-3l0,-1" id="svg_15" stroke-width="1.5" stroke="#969696" fill="none"/>
  <path d="m177.75,95.158468c-1,1 -0.414215,0.585785 1,2c0.707108,0.707108 1,2 2,2c1,0 1.026749,0.770248 2,1c2.176254,0.513748 2,2 3,2c1,0 2,0 3,0c1,0 2,0 3,0c1,0 2,0 3,0c1,0 2,0 3,0c1,0 2,0 3,0c1,0 2,0 3,0c1,0 2,0 3,0c1,0 2,0 3,0c1,0 2,0 3,0c1,0 2,0 3,0c1,0 2,0 3,0c1,0 2,0 3,0c1,0 2.076126,0.38269 3,0c1.306564,-0.541199 2,-1 4,-1l1,0" id="svg_16" stroke-width="1.5" stroke="#969696" fill="none"/>
  <path d="m200.75,52.158468c0,0 0,1 1,1c1,0 2,0 3,0c2,0 2,0 2,0c1,0 2,0 3,0c1,0 1.076126,0.61731 2,1c1.306564,0.541199 2,1 3,2c1,1 1.693436,1.458801 3,2c0.923874,0.38269 2,0 3,0c2,0 3.824432,-0.902115 5,1c0.525726,0.850647 1,1 2,1c1,0 2.292892,-0.707108 3,0c0.707108,0.707108 0.693436,1.458801 2,2c0.923889,0.38269 1.292908,0.292892 2,1c0.707092,0.707108 0.693451,2.458801 2,3c0.923889,0.38269 1,1 2,2c1,1 0.693451,2.458801 2,3c0.923889,0.38269 0.692535,1.186005 2,3c0.826904,1.147263 2,3 2,4c0,1 1,1 1,2l1,1l1,0" id="svg_17" stroke-width="1.5" stroke="#969696" fill="none"/>
  <path d="m184.75,70.158468c0,0 1,0 1,0c1,0 1.292892,1.292892 2,2c0.707108,0.707108 2,0 3,0c1,0 2,1 3,1c1,0 1.292892,0.292892 2,1c0.707108,0.707108 2,0 3,0c1,0 2.585785,1.414215 4,0c0.707108,-0.707108 -0.147263,-2.173096 1,-3c1.813995,-1.307449 2.292892,-2.292892 3,-3c0.707108,-0.707108 1.458801,-0.693436 2,-2c0.38269,-0.923874 0.458801,-1.693436 1,-3c0.38269,-0.923874 0,-2 0,-3c0,-1 0,-2 0,-3c0,-1 0,-2 0,-3l-1,-1" id="svg_18" stroke-width="1.5" stroke="#969696" fill="none"/>
  <path d="m291.75,126.158468c0,0 -1.458801,0.306564 -2,-1c-0.38269,-0.923874 -0.770233,-1.026749 -1,-2c-0.513733,-2.176254 -0.61731,-3.076126 -1,-4c-0.541199,-1.306564 -1.292908,-2.292892 -2,-3c-0.707092,-0.707108 -1,-1 -2,-2c-1,-1 -1,-2 -1,-3c0,-1 0,-2 0,-3c0,-1 0,-2 0,-3c0,-1 0,-2 0,-3c0,-1 0,-2 0,-3c0,-1 0,-2 0,-3c0,-1 0,-2 0,-3c0,-1 0,-2 1,-2c1,0 1.292908,-0.292892 2,-1c0.707092,-0.707108 1.076111,-0.61731 2,-1c1.306549,-0.541199 2,-1 3,-2c1,-1 1.61731,-2.076126 2,-3c0.541199,-1.306564 2,-1 3,-1c1,0 2,0 3,0c1,0 2,0 3,0c1,0 1.076111,-0.61731 2,-1c1.306549,-0.541199 2,-1 3,-1c1,0 2,0 3,0c1,0 2,0 3,0c1,0 2,0 3,0c1,0 2,0 3,0c1,0 2,0 3,0c1,0 2,0 3,0c1,0 2,1 3,1c1,0 1.585785,-0.414215 3,1c0.707092,0.707108 1.824432,1.097885 3,3c0.525726,0.850647 1,2 2,3c1,1 1.458801,1.693436 2,3c0.38269,0.923874 1,2 1,3c0,1 0,2 0,3c0,1 0,2 0,3c0,1 0,2 0,3c0,1 0,2 0,3c0,1 0,2 0,3c0,1 0,2 0,3c0,1 0,2 0,3c0,1 0,2 0,3c0,1 0,2 0,3c0,1 0,2 0,3c0,1 0,2 0,3c0,1 0.707092,2.292892 0,3c-0.707092,0.707108 -2.458801,-0.306564 -3,1c-0.38269,0.923874 -1.292908,0.292892 -2,1c-0.707092,0.707108 -1,1 -2,2c-1,1 -3.292908,1.292892 -4,2c-0.707092,0.707108 -1,1 -2,1c-1,0 -0.693451,1.458801 -2,2c-0.923889,0.38269 -1.693451,0.458801 -3,1c-0.923889,0.38269 -1,1 -2,1c-1,0 -2,0 -3,0c-1,0 -2,0 -3,0c-1,0 -2,0 -3,0c-1,0 -2,-1 -3,-1c-1,0 -1.292908,-1.292892 -2,-2c-0.707092,-0.707108 -1.076111,-0.61731 -2,-1c-1.306549,-0.541199 -2.292908,-0.292892 -3,-1c-0.707092,-0.707108 -0.292908,-1.292892 -1,-2c-0.707092,-0.707108 -1.693451,-0.458801 -3,-1c-0.923889,-0.38269 -2,-1 -3,-2c-1,-1 -1,-2 -1,-3c0,-1 -0.292908,-1.292892 -1,-2c-0.707092,-0.707108 -0.458801,-1.693436 -1,-3c-0.38269,-0.923874 -1,-1 -2,-2c-1,-1 -1.61731,-2.076126 -2,-3c-0.541199,-1.306564 -0.61731,-2.076126 -1,-3c-0.541199,-1.306564 -0.61731,-2.076126 -1,-3c-0.541199,-1.306564 -1,-2 -1,-3c0,-1 0,-2 0,-3c0,-1 0,-2 0,-3c0,-1 0,-2 0,-3c0,-1 0,-2 0,-3l0,-1l0,-1l0,-1" id="svg_20" stroke-width="1.5" stroke="#969696" fill="none"/>
  <path d="m284.75,91.158468c0,1 0,2 0,3c0,1 0,2 0,3c0,1 0.61731,2.076126 1,3c0.541199,1.306564 2,2 3,2c1,0 1.292908,1.292892 2,2c1.414215,1.414215 3,0 4,0c1,0 2,0 3,0c1,0 2,0 3,0c1,0 2.076111,0.38269 3,0c1.306549,-0.541199 1.458801,-1.693436 2,-3c0.38269,-0.923874 0.61731,-3.076126 1,-4c0.541199,-1.306564 1,-2 1,-3c0,-1 0,-2 0,-3c0,-1 0,-2 0,-3c0,-1 0,-2 0,-3l0,-1" id="svg_21" stroke-width="1.5" stroke="#969696" fill="none"/>
  <path d="m330.75,131.158468c0,0 0,-1 0,-1c-1,0 -2,0 -3,0c-1,0 -2,0 -3,0c-1,0 -2,0 -3,0c-1,0 -2,0 -3,0c-1,0 -2.076111,0.38269 -3,0c-1.306549,-0.541199 -2.076111,-0.61731 -3,-1c-1.306549,-0.541199 -2,-1 -3,-2c-1,-1 -1.693451,-1.458801 -3,-2c-0.923889,-0.38269 -1.693451,-0.458801 -3,-1c-0.923889,-0.38269 -2.076111,-0.61731 -3,-1c-1.306549,-0.541199 -1.693451,-2.458801 -3,-3c-0.923889,-0.38269 -2,-1 -3,-2c-1,-1 -1.292908,-1.292892 -2,-2c-0.707092,-0.707108 -0.292908,-1.292892 -1,-2c-1.414215,-1.414215 -2.292908,-0.292892 -3,-1c-0.707092,-0.707108 -1,-1 -2,-2c-1,-1 -1,-2 -1,-3l0,-1l0,-1l0,-1" id="svg_22" stroke-width="1.5" stroke="#969696" fill="none"/>
  <path d="m299.75,81.158468c0,0 0,0 1,0c1,0 1.292908,0.292892 2,1c0.707092,0.707108 2,0 3,0c1,0 2.292908,0.292892 3,1c0.707092,0.707108 1.076111,1.61731 2,2c1.306549,0.541199 2.076111,0.61731 3,1c1.306549,0.541199 2,1 3,1c1,0 1.0979,0.824432 3,2c0.850647,0.525726 2,0 3,0c1,0 1.292908,0.292892 2,1c0.707092,0.707108 2,1 3,1c1,0 1,1 2,1c1,0 2.076111,0.61731 3,1c1.306549,0.541199 2,1 3,2c1,1 2.292908,0.292892 3,1c0.707092,0.707108 1,1 2,2l1,0" id="svg_23" stroke-width="1.5" stroke="#969696" fill="none"/>
  <path d="m327.75,59.158468c0,0 0,0 1,0c1,0 2.61731,-0.076126 3,-1c0.541199,-1.306564 2,-1 3,-1c1,0 2,-1 3,-1c1,0 1.693451,-0.458801 3,-1c0.923889,-0.38269 1.693451,-0.458801 3,-1c0.923889,-0.38269 2,0 3,0c1,0 2,0 3,0c1,0 2.076111,-0.38269 3,0c1.306549,0.541199 2,1 3,2l1,0" id="svg_24" stroke-width="1.5" stroke="#969696" fill="none"/>
  <path d="m230.75,21.158468c0,0 0,0 1,0c1,0 2,0 3,0c1,0 2,0 3,0c1,0 3.458801,-0.306564 4,1c0.38269,0.923882 1.076111,1.617317 2,2c1.306549,0.541199 1.076111,1.617317 2,2c1.306549,0.541199 1.458801,1.693436 2,3c0.38269,0.923882 0.458801,1.693436 1,3c0.38269,0.923882 1.292908,1.292892 2,2c0.707092,0.707108 -0.414215,2.585785 1,4c0.707092,0.707108 0.0979,1.824432 2,3c0.850647,0.525734 1,1 2,2c1,1 1.692535,2.186005 3,4c0.826904,1.14727 1.458801,1.693436 2,3c0.38269,0.923874 1,2 1,3l1,1l1,0" id="svg_25" stroke-width="1.5" stroke="#969696" fill="none"/>
  <path d="m232.75,172.158468c0,0 0,0 1,0c1,0 2,0 3,0c1,0 2,0 3,0c1,0 2,0 3,0c1,0 0.693451,1.458801 2,2c0.923889,0.38269 2,1 3,2l1,1l0,1l1,0" id="svg_26" stroke-width="1.5" stroke="#969696" fill="none"/>
  <path id="svg_29" d="m155.75,238.158468" opacity="0.5" fill-opacity="null" stroke-width="1.5" stroke="#969696" fill="none"/>
  <path id="svg_36" d="m328.75,237.158468c0,0 67,-51 29,-163" opacity="0.5" fill-opacity="null" stroke-width="1.5" stroke="#969696" fill="none"/>
  <path id="svg_37" d="m321.75,24.158468c0,0 38,53 38,53" opacity="0.5" fill-opacity="null" stroke-width="1.5" stroke="#969696" fill="none"/>
  <path id="svg_38" d="m320.75,22.158468c0,0 17,32 36,53" opacity="0.5" fill-opacity="null" stroke-width="1.5" stroke="#969696" fill="none"/>
  <path id="svg_39" d="m321.75,25.158468" opacity="0.5" fill-opacity="null" stroke-width="1.5" stroke="#969696" fill="none"/>
  <path id="svg_41" d="m321.75,23.158468c0,0 -76,-42 -105,-11" opacity="0.5" fill-opacity="null" stroke-width="1.5" stroke="#969696" fill="none"/>
  <path d="m154.75,248.158468c0,0 0,0 0,-1c0,-1 0,-2 0,-3c0,-1 0,-2 0,-3c0,-1 0,-2 0,-3l0,-1l0,-1" id="svg_44" fill-opacity="null" stroke-width="1.5" stroke="#969696" fill="none"/>
  <path d="m168.75,240.158468c0,0 -1.458801,-0.693451 -2,-2c-0.38269,-0.923889 -1,-1 -1,-2c0,-1 -1,-2 -1,-3c0,-1 -1,-3 -1,-4c0,-1 -1,-2 -1,-3c0,-1 -1,-2 -1,-3c0,-1 -0.458801,-1.693451 -1,-3c-0.38269,-0.923889 -1,-2 -1,-3c0,-1 -0.306564,-3.458801 1,-4c0.923874,-0.38269 2,0 3,0c1,0 2,0 3,0c1,0 2,0 3,0c1,0 2,0 3,0c1,0 1.61731,1.076111 2,2c0.541199,1.306549 0.823746,2.486267 3,3c0.973251,0.229767 1.292892,0.292908 2,1c0.707108,0.707092 0.693436,2.541199 2,2c0.923874,-0.38269 -1.292892,-1.292908 -2,-2c-0.707108,-0.707092 -1,-1 -2,-1c-1,0 -1.61731,-1.076111 -2,-2c-0.541199,-1.306549 -2,-1 -1,-1c1,0 2.292892,-0.707092 3,0c0.707108,0.707092 1.076126,0.61731 2,1c1.306564,0.541199 1.292892,1.292908 2,2c0.707108,0.707092 1.61731,0.076111 2,1c0.541199,1.306549 2.076126,1.61731 3,2c1.306564,0.541199 -0.186005,1.307465 -2,0c-1.147263,-0.826904 -1.076126,-1.61731 -2,-2c-1.306564,-0.541199 -2.292892,-0.292908 -3,-1c-0.707108,-0.707092 -1.824432,-0.0979 -3,-2c-0.525726,-0.850647 -0.693436,-1.458801 -2,-2c-0.923874,-0.38269 -1.292892,-1.292908 -2,-2c-0.707108,-0.707092 -1.292892,-1.292908 -2,-2c-0.707108,-0.707092 -2,0 -3,0c-1,0 -1.292892,-0.292908 -2,-1c-0.707108,-0.707092 -2.292892,-0.292908 -3,-1c-0.707108,-0.707092 -0.292892,-1.292908 -1,-2c-0.707108,-0.707092 -1.076126,-0.61731 -2,-1c-1.306564,-0.541199 -2.076126,-1.61731 -3,-2c-1.306564,-0.541199 -2.458801,-1.693451 -3,-3c-0.38269,-0.923889 0,-2 -1,-3c-1,-1 -2,-1 -2,-2l-1,-1l0,-1" id="svg_45" fill-opacity="null" stroke-width="1.5" stroke="#969696" fill="none"/>
  <polyline stroke-linecap="round" id="svg_46" points="152.75,199.1584815979004 152.75,199.1584815979004 151.75,199.1584815979004 151.75,199.1584815979004 151.75,198.1584815979004 151.75,197.1584815979004 151.75,196.1584815979004 151.75,195.1584815979004 151.75,194.1584815979004 151.75,193.1584815979004 151.75,192.1584815979004 151.75,191.1584815979004 151.75,190.1584815979004 151.75,189.1584815979004 151.75,188.1584815979004 151.75,187.1584815979004 151.75,186.1584815979004 151.75,185.1584815979004 151.75,184.1584815979004 151.75,183.1584815979004 151.75,182.1584815979004 151.75,181.1584815979004 151.75,180.1584815979004 151.75,179.1584815979004 152.75,179.1584815979004 153.75,179.1584815979004 153.75,178.1584815979004 154.75,178.1584815979004 154.75,177.1584815979004 155.75,177.1584815979004 156.75,177.1584815979004 157.75,177.1584815979004 158.75,177.1584815979004 159.75,177.1584815979004 160.75,177.1584815979004 161.75,177.1584815979004 162.75,177.1584815979004 163.75,177.1584815979004 164.75,177.1584815979004 165.75,178.1584815979004 166.75,179.1584815979004 166.75,180.1584815979004 167.75,181.1584815979004 167.75,182.1584815979004 167.75,183.1584815979004 167.75,184.1584815979004 168.75,185.1584815979004 169.75,185.1584815979004 169.75,186.1584815979004 170.75,186.1584815979004 170.75,187.1584815979004 171.75,187.1584815979004 172.75,188.1584815979004 173.75,188.1584815979004 173.75,189.1584815979004 173.75,190.1584815979004 174.75,190.1584815979004 174.75,191.1584815979004 174.75,192.1584815979004 175.75,192.1584815979004 175.75,193.1584815979004 176.75,194.1584815979004 177.75,195.1584815979004 177.75,196.1584815979004 178.75,197.1584815979004 179.75,197.1584815979004 179.75,198.1584815979004 180.75,198.1584815979004 182.75,198.1584815979004 182.75,199.1584815979004 183.75,199.1584815979004 184.75,200.1584815979004 185.75,200.1584815979004 186.75,201.1584815979004 187.75,201.1584815979004 189.75,201.1584815979004 189.75,202.1584815979004 190.75,202.1584815979004 191.75,202.1584815979004 192.75,203.1584815979004 193.75,203.1584815979004 194.75,203.1584815979004 195.75,203.1584815979004 196.75,204.1584815979004 197.75,204.1584815979004 198.75,205.1584815979004 199.75,205.1584815979004 199.75,206.1584815979004 200.75,206.1584815979004 201.75,207.1584815979004 201.75,208.1584815979004 202.75,208.1584815979004 203.75,208.1584815979004 204.75,209.1584815979004 205.75,209.1584815979004 205.75,210.1584815979004 " opacity="0.5" fill-opacity="null" stroke-width="1.5" stroke="#969696" fill="none"/>
  <path d="m239.75,219.158468c0,0 -1,0 -2,0c-1,0 -2,1 -3,1c0,0 -1,0 -2,0c-1,0 -2,0 -3,0c-1,0 -1.693436,-0.458801 -3,-1c-0.923874,-0.38269 -1.61731,-0.076111 -2,-1c-0.541199,-1.306549 -2.292892,-0.292908 -3,-1c-0.707108,-0.707092 -1,-1 -2,-2c-1,-1 -2.292892,-0.292908 -3,-1c-0.707108,-0.707092 -1.076126,-0.61731 -2,-1c-1.306564,-0.541199 -2.292892,-0.292908 -3,-1c-0.707108,-0.707092 -1,-1 -2,-1c-1,0 -2,0 -3,0c-1,0 -1.693436,-1.458801 -3,-2c-0.923874,-0.38269 -1.823746,-0.486267 -4,-1c-0.973251,-0.229767 -2.076126,-0.61731 -3,-1c-1.306564,-0.541199 -1.693436,-1.458801 -3,-2c-0.923874,-0.38269 -2.292892,-0.292908 -3,-1c-0.707108,-0.707092 -1,-2 -2,-2c-1,0 -1.076126,-0.61731 -2,-1c-1.306564,-0.541199 -1.693436,-1.458801 -3,-2c-0.923874,-0.38269 -2.076126,-0.61731 -3,-1c-1.306564,-0.541199 -2.458801,-0.693451 -3,-2c-0.38269,-0.923889 -1.474274,-2.149353 -2,-3c-1.175568,-1.9021 -2.292892,-1.292908 -3,-2c-0.707108,-0.707092 -1,-2 -2,-3c-1,-1 -2,-2 -3,-3l0,-1l-1,-1l-1,-1" id="svg_47" fill-opacity="null" stroke-width="1.5" stroke="#969696" fill="none"/>
  <path d="m256.75,262.158468c0,-1 0,-2 0,-3c0,-1 0,-2 0,-3c0,-1 0,-2 0,-3c0,-1 0,-2 -1,-3l0,-1" id="svg_48" fill-opacity="null" stroke-width="1.5" stroke="#969696" fill="none"/>
  <path d="m153.75,247.158468c0,0 0,0 0,-1c0,-1 0,-2 0,-3c0,-1 -0.707108,-2.292908 0,-3c0.707108,-0.707092 2.076126,-0.61731 3,-1c1.306564,-0.541199 2.458801,-0.693451 3,-2c0.38269,-0.923889 1,-1 2,-1c1,0 2,0 3,0c1,0 2,0 3,0l1,0" id="svg_49" fill-opacity="null" stroke-width="1.5" stroke="#969696" fill="none"/>
  <path d="m255.75,262.158468c0,0 1,0 1,-1c0,-1 0.458801,-1.693451 1,-3c0.38269,-0.923889 0,-2 0,-3c0,-1 0,-2 0,-3c0,-1 1.292908,-1.292908 2,-2c0.707092,-0.707092 0.458801,-1.693451 1,-3c0.38269,-0.923889 0.61731,-1.076111 1,-2c0.541199,-1.306549 2,-1 2,-2c0,-1 1,-1 1,-2c0,-1 0.458801,-1.693451 1,-3c0.38269,-0.923889 1.458801,-0.693451 2,-2c0.38269,-0.923889 0.61731,-2.076111 1,-3c0.541199,-1.306549 2.292908,-1.292908 3,-2c0.707092,-0.707092 1.292908,-1.292908 2,-2c0.707092,-0.707092 1,-1 2,-1c1,0 2.076111,0.38269 3,0c1.306549,-0.541199 2,-1 3,-1c1,0 3.076111,-0.61731 4,-1c1.306549,-0.541199 1.693451,-1.458801 3,-2c0.923889,-0.38269 2.076111,0.38269 3,0c1.306549,-0.541199 2,-2 3,-2c1,0 2,-1 3,-1l0,-1l1,0l1,-1" id="svg_50" fill-opacity="null" stroke-width="1.5" stroke="#969696" fill="none"/>
  <path d="m256.75,258.158468c0,0 0,-1 0,-2c0,-1 0,-2 0,-3c0,-1 0.292908,-1.292908 1,-2c0.707092,-0.707092 -0.38269,-2.076111 0,-3c0.541199,-1.306549 1.61731,-1.076111 2,-2c0.541199,-1.306549 1.292908,-1.292908 2,-2c0.707092,-0.707092 1.61731,-1.076111 2,-2c0.541199,-1.306549 1.61731,-2.076111 2,-3c0.541199,-1.306549 2.458801,-1.693451 3,-3c0.38269,-0.923889 2,-2 3,-3c1,-1 2.076111,-1.61731 3,-2c1.306549,-0.541199 1.693451,-1.458801 3,-2c0.923889,-0.38269 1.292908,-0.292908 2,-1c0.707092,-0.707092 2,0 3,-1c1,-1 1.693451,-2.458801 3,-3c0.923889,-0.38269 2.076111,-0.61731 3,-1c1.306549,-0.541199 1.292908,-1.292908 2,-2c0.707092,-0.707092 2.076111,-0.61731 3,-1c1.306549,-0.541199 2,-1 3,-1c1,0 1.076111,-0.61731 2,-1c1.306549,-0.541199 2,-2 3,-3c1,-1 1.61731,-2.076111 2,-3c0.541199,-1.306549 1,-2 1,-3c0,-1 0,-2 0,-3c0,-1 -0.693451,-2.458801 -2,-3c-0.923889,-0.38269 -1,-1 -2,-2c-1,-1 -2,-1 -3,-1c-1,0 -2,0 -3,0c-1,0 -2,0 -3,0c-1,0 -2,0 -3,0c-1,0 -2,0 -3,0c-1,0 -1.292908,0.292908 -2,1c-0.707092,0.707092 -3,1 -4,1c-1,0 -2.076111,0.61731 -3,1c-1.306549,0.541199 -2,1 -3,1c-1,0 -1,1 -2,1c-1,0 -2,0 -3,0c-1,0 -1.693451,1.458801 -3,2c-0.923889,0.38269 -2,1 -3,1c-1,0 -2,1 -3,1c-1,0 -2.292908,-0.707092 -3,0c-0.707092,0.707092 -1,1 -2,1c-1,0 -2,0 -3,1c-1,1 -2.292908,0.292908 -3,1c-0.707092,0.707092 -1.292908,0.292908 -2,1c-0.707092,0.707092 -1.458801,0.693451 -2,2c-0.38269,0.923889 -1,1 -2,1c-1,0 -1,1 -2,1c-1,0 -2,0 -3,1l-2,1" id="svg_51" fill-opacity="null" stroke-width="1.5" stroke="#969696" fill="none"/>
  <path d="m282.75,200.158468c1,0 2.292908,-0.707092 3,0c0.707092,0.707092 0.693451,1.458801 2,2c0.923889,0.38269 2,0 3,0c1,0 1,1 2,1c1,0 2,1 3,1c1,0 2.458801,0.693451 3,2c0.38269,0.923889 0.61731,1.076111 1,2c0.541199,1.306549 1,2 1,3c0,1 0.765381,2.152252 0,4c-0.541199,1.306549 -2.458801,0.693451 -3,2c-0.38269,0.923889 -0.693451,1.458801 -2,2c-0.923889,0.38269 -1.292908,0.292908 -2,1c-0.707092,0.707092 -2,0 -3,0l-1,0" id="svg_52" fill-opacity="null" stroke-width="1.5" stroke="#969696" fill="none"/>
  <path d="m235.75,170.158468c0,0 -0.707092,-0.292892 0,-1c0.707092,-0.707108 2,0 3,0c1,0 2,0 3,0c1,0 2.292908,-0.707108 3,0c0.707092,0.707108 1.292908,1.292892 2,2c0.707092,0.707108 0.458801,1.693436 1,3c0.38269,0.923874 1,1 1,2l0,1" id="svg_53" fill-opacity="null" stroke-width="1.5" stroke="#969696" fill="none"/>
  <path d="m230.75,169.158468c0,0 -0.38269,-0.076126 0,-1c0.541199,-1.306564 2,-1 3,-1c1,0 2,0 3,0c1,0 1.693451,0.458801 3,1c0.923889,0.38269 1.292908,0.292892 2,1c0.707092,0.707108 1.458801,0.693436 2,2c0.38269,0.923874 1.292908,0.292892 2,1c0.707092,0.707108 1.707092,1.292892 1,2c-1.414215,1.414215 -1.692535,-1.186005 -3,-3c-0.826904,-1.147263 -1.61731,-1.076126 -2,-2c-0.541199,-1.306564 -2,-2 -3,-2c-1,0 -2,0 -3,0c-1,0 -2.149353,-0.525726 -3,0c-1.902115,1.175568 -1.306564,2.541199 0,2c0.923889,-0.38269 2,0 3,0c1,0 2,0 3,0c1,0 2,0 3,0c1,0 1,1 2,1l0,1" id="svg_54" fill-opacity="null" stroke-width="1.5" stroke="#969696" fill="none"/>
  <path d="m153.75,236.158468c0,0 -1.458801,0.306549 -2,-1c-0.38269,-0.923889 -0.292892,-1.292908 -1,-2c-0.707108,-0.707092 0.707108,-2.292908 0,-3c-0.707108,-0.707092 -1,-1 -1,-2c0,-1 -0.458801,-1.693451 -1,-3c-0.38269,-0.923889 0.707108,-2.292908 0,-3c-0.707108,-0.707092 -1,-1 -1,-2c0,-1 -1,-1 -1,-2c0,-1 0,-2 0,-3c0,-1 0,-2 0,-3c0,-1 0,-2 0,-3c0,-1 0,-2 0,-3c0,-1 0,-2 0,-3c0,-1 0.38269,-2.076111 0,-3c-0.541199,-1.306549 -1,-2 -1,-3c0,-1 -1,-1 -1,-2c0,-1 0,-2 0,-3c0,-1 -1,-2 -1,-3c0,-1 -1,-3 -1,-4c0,-1 0,-2 0,-3c0,-1 0,-2 0,-3c0,-1 -0.459503,-2.053497 0,-4c0.513748,-2.176254 2,-3 2,-4l1,0" id="svg_55" fill-opacity="null" stroke-width="1.5" stroke="#969696" fill="none"/>
  <path d="m204.75,16.158468c0,0 1,0 2,0c1,0 2,0 3,0c1,0 2,0 3,0c1,0 1.458801,-0.693436 2,-2c0.38269,-0.923882 2,-2 3,-3c1,-1 2.076126,-1.617317 3,-2c1.306564,-0.541199 1.693436,-2.458801 3,-3c0.923874,-0.382683 1,-1 2,-1c1,0 1.693436,-1.458801 3,-2c0.923874,-0.382683 2,0 3,0c1,0 2.076111,0.382683 3,0c1.306549,-0.541199 2,-1 3,-1c1,0 2,0 3,0c1,0 2,0 3,0c1,0 2,0 3,0c1,0 2,0 3,0c1,0 2,0 3,0c1,0 2,0 3,0c1,0 2,0 3,0c1,0 2,0 3,0c1,0 2,0 3,0c1,0 1.292908,0.292892 2,1c0.707092,0.707108 1.693451,1.458801 3,2c0.923889,0.382683 1,1 2,1c1,0 2,1 3,1c1,0 2.458801,-0.306564 3,1c0.38269,0.923882 1,1 2,1c1,0 1.693451,0.458801 3,1c0.923889,0.382683 1.852722,0.173096 3,1c1.813995,1.307449 3.076111,0.617317 4,1c1.306549,0.541199 2,1 3,1c1,0 2,0 3,0c1,0 2,0 3,0c1,0 2.076111,0.617317 3,1c1.306549,0.541199 2.076111,0.617317 3,1c1.306549,0.541199 2,1 3,1c1,0 1.292908,1.292892 2,2c0.707092,0.707108 2.292908,-0.707108 3,0c0.707092,0.707108 0.693451,1.458801 2,2c0.923889,0.382683 1.292908,0.292892 2,1c0.707092,0.707108 1,1 2,1l1,0l1,1l1,1" id="svg_57" fill-opacity="null" stroke-width="1.5" stroke="#969696" fill="none"/>
  <path d="m154.75,234.158468c0,0 -1.292892,0.707092 -2,0c-0.707108,-0.707092 0,-2 0,-3c0,-1 0.38269,-2.076111 0,-3c-0.541199,-1.306549 -2,-1 -2,-2c0,-1 0,-2 0,-3c0,-1 0,-2 0,-3l0,-1" id="svg_58" fill-opacity="null" stroke-width="1.5" stroke="#969696" fill="none"/>
  <path d="m145.75,169.158468c0,0 -0.506546,-0.878555 0,-4c0.160187,-0.987091 -0.229752,-2.026749 0,-3c0.513748,-2.176254 2,-3 2,-4c0,-1 -0.707108,-2.292892 0,-3c0.707108,-0.707108 1,-1 1,-2c0,-1 0,-2 0,-3c0,-1 0,-2 0,-3c0,-1 0,-2 0,-3c0,-1 0.38269,-2.076126 0,-3c-0.541199,-1.306564 -1.458801,-1.693436 -2,-3c-0.38269,-0.923874 0,-2 0,-3c0,-1 0,-2 0,-3c0,-1 0,-2 0,-3c0,-1 0,-2 0,-3c0,-1 0,-2 0,-3c0,-1 0,-2 0,-3c0,-1 0,-2 0,-3c0,-1 0,-2 0,-3c0,-1 0,-2 0,-3c0,-1 0,-2 0,-3c0,-1 0.458801,-1.693436 1,-3c0.38269,-0.923874 0.292892,-1.292892 1,-2c0.707108,-0.707108 1,-1 1,-2c0,-1 0.292892,-1.292892 1,-2c0.707108,-0.707108 -0.38269,-2.076126 0,-3c0.541199,-1.306564 1.61731,-2.076126 2,-3c0.541199,-1.306564 3,-1 3,-2l1,-1l1,0" id="svg_59" fill-opacity="null" stroke-width="1.5" stroke="#969696" fill="none"/>
  <path d="m155.75,234.158468c0,0 0,-1 -1,-2c-1,-1 -1.61731,-2.076111 -2,-3c-0.541199,-1.306549 -1.824432,-1.0979 -3,-3c-0.525726,-0.850647 -1,-2 -1,-3l0,-1" id="svg_60" fill-opacity="null" stroke-width="1.5" stroke="#969696" fill="none"/>
  <path d="m148.75,105.158468c0,0 -0.38269,-1.076126 0,-2c0.541199,-1.306564 0.61731,-2.076126 1,-3c0.541199,-1.306564 0.61731,-1.076126 1,-2c0.541199,-1.306564 0.585785,-1.585785 2,-3c0.707108,-0.707108 1.292892,-0.292892 2,-1c0.707108,-0.707108 0.292892,-2.292892 1,-3c0.707108,-0.707108 0.292892,-1.292892 1,-2c0.707108,-0.707108 0.693436,-1.458801 2,-2c0.923874,-0.38269 1.292892,-0.292892 2,-1c0.707108,-0.707108 1.292892,-0.292892 2,-1c0.707108,-0.707108 -0.707108,-2.292892 0,-3c0.707108,-0.707108 2,-1 2,-2c0,-1 1,-2 1,-3c0,-1 1,-3 1,-4c0,-1 0.292892,-2.292892 1,-3c0.707108,-0.707108 2,-1 2,-2c0,-1 1,-1 2,-2c1,-1 1.292892,-1.292892 2,-2c0.707108,-0.707108 1.458801,-0.693436 2,-2c0.38269,-0.923874 0.458801,-1.693436 1,-3c0.38269,-0.923874 1.292892,-1.292892 2,-2c0.707108,-0.707108 0.292892,-1.292892 1,-2c0.707108,-0.707108 1.292892,-1.292892 2,-2c0.707108,-0.707108 1.458801,-1.693436 2,-3c0.38269,-0.923882 0.292892,-1.292892 1,-2c0.707108,-0.707108 -0.38269,-2.076118 0,-3c0.541199,-1.306564 1,-2 1,-3l0,-1" id="svg_61" fill-opacity="null" stroke-width="1.5" stroke="#969696" fill="none"/>
  <path d="m148.75,102.158468c0,0 0,-1 0,-2c0,-1 0.61731,-2.076126 1,-3c0.541199,-1.306564 1.61731,-2.076126 2,-3c0.541199,-1.306564 1.292892,-1.292892 2,-2c0.707108,-0.707108 0,-1 1,-2c1,-1 1.292892,-1.292892 2,-2c0.707108,-0.707108 1,-3 2,-4c1,-1 1.292892,-1.292892 2,-2c0.707108,-0.707108 0.292892,-1.292892 1,-2c1.414215,-1.414215 1.693436,-1.458801 3,-2c0.923874,-0.38269 1.61731,-0.076126 2,-1c0.541199,-1.306564 1.458801,-1.693436 2,-3c0.38269,-0.923874 1.458801,-1.693436 2,-3c0.38269,-0.923874 -0.38269,-2.076126 0,-3c0.541199,-1.306564 0.292892,-2.292892 1,-3c0.707108,-0.707108 0.292892,-1.292892 1,-2c0.707108,-0.707108 1.458801,-0.693436 2,-2c0.38269,-0.923874 1,-2 1,-3c0,-1 -0.306564,-2.458801 1,-3c0.923874,-0.38269 1,-1 1,-2c0,-1 1,-1 1,-2c0,-1 0.458801,-1.693436 1,-3c0.38269,-0.923882 0,-2 0,-3c0,-1 1.292892,-1.292892 2,-2c0.707108,-0.707108 1,-2 1,-3c0,-1 0.292892,-1.292892 1,-2c0.707108,-0.707108 1.693436,-1.458801 3,-2c0.923874,-0.382683 0.097885,-1.824432 2,-3c0.850647,-0.525734 2.149353,-1.474266 3,-2c1.902115,-1.175568 2.292892,-2.292892 3,-3c0.707108,-0.707108 1.076126,-0.617317 2,-1c1.306564,-0.541199 1.292892,-1.292892 2,-2c0.707108,-0.707108 1.693436,-1.458801 3,-2c0.923874,-0.382683 2,-1 3,-1l1,0l1,-1" id="svg_62" fill-opacity="null" stroke-width="1.5" stroke="#969696" fill="none"/>
  <path d="m230.75,20.158468c0,0 -0.707108,-0.292892 0,-1c0.707108,-0.707108 2,0 3,0c1,0 2,0 3,0c1,0 2.292908,-0.707108 3,0c0.707092,0.707108 1,2 1,3c0,1 1,2 1,3c0,1 1.292908,0.292892 2,1c0.707092,0.707108 0.292908,1.292892 1,2c0.707092,0.707108 2.292908,0.292892 3,1c0.707092,0.707108 0.458801,1.693436 1,3c0.38269,0.923882 0.292908,2.292892 1,3c0.707092,0.707108 1.292908,0.292892 2,1c0.707092,0.707108 0.292908,1.292892 1,2c0.707092,0.707108 0.458801,1.693436 1,3c0.38269,0.923882 -0.38269,2.076118 0,3c0.541199,1.306564 1.61731,1.076118 2,2c0.541199,1.306564 0.693451,2.458801 2,3c0.923889,0.382683 1,1 2,2l0,1l1,0" id="svg_63" fill-opacity="null" stroke-width="1.5" stroke="#969696" fill="none"/>
  <path d="m329.75,59.158468c0,0 0.292908,0.707108 1,0c0.707092,-0.707108 1.292908,-0.292892 2,-1c0.707092,-0.707108 1,-2 2,-2c1,0 2,0 3,0c1,0 1.823761,-0.486252 4,-1c0.973236,-0.229752 2,-1 3,-1c1,0 1.823761,-1.486252 4,-2c0.973236,-0.229752 2,0 3,0c1,0 2,1 2,2l1,1l2,1" id="svg_64" fill-opacity="null" stroke-width="1.5" stroke="#969696" fill="none"/>
  <path d="m260.75,53.158468c0,0 0.414215,-0.585785 -1,-2c-0.707092,-0.707108 -2,-1 -2,-2c0,-1 -0.292908,-1.292892 -1,-2c-0.707092,-0.707108 -1.458801,-1.693436 -2,-3c-0.38269,-0.923882 -1.292908,-1.292892 -2,-2c-0.707092,-0.707108 -0.458801,-1.693436 -1,-3c-0.38269,-0.923882 0,-2 0,-3c0,-1 -0.292908,-1.292892 -1,-2c-0.707092,-0.707108 -1.61731,-1.076118 -2,-2c-0.541199,-1.306564 -1.458801,-1.693436 -2,-3c-0.38269,-0.923882 0.306549,-2.458801 -1,-3c-0.923889,-0.382683 -1.292908,-0.292892 -2,-1c-0.707092,-0.707108 -0.693451,-2.458801 -2,-3c-0.923889,-0.382683 -1,-1 -2,-1c-1,0 -1.693451,-1.458801 -3,-2c-0.923889,-0.382683 -2,0 -3,0c-1,0 -2,0 -3,0l-1,0" id="svg_65" fill-opacity="null" stroke-width="1.5" stroke="#969696" fill="none"/>
  <path d="m329.75,58.158468c0,0 -0.38269,-0.076126 0,-1c0.541199,-1.306564 2,-2 3,-2c1,0 2.076111,0.38269 3,0c1.306549,-0.541199 2,-2 3,-2c1,0 1,-1 2,-1c1,0 2,0 3,0c1,0 2,0 3,0c1,0 2.292908,-0.707108 3,0c0.707092,0.707108 1,2 2,2l1,0l1,1l0,1" id="svg_66" fill-opacity="null" stroke-width="1.5" stroke="#969696" fill="none"/>
  <polyline stroke-linecap="round" id="svg_67" points="260.75,54.158470153808594 260.75,54.158470153808594 260.75,54.158470153808594 259.75,52.158470153808594 258.75,51.158470153808594 257.75,51.158470153808594 256.75,50.158470153808594 255.75,49.158470153808594 255.75,48.158470153808594 255.75,47.158470153808594 254.75,46.158470153808594 253.75,45.158470153808594 253.75,44.158470153808594 252.75,43.158470153808594 251.75,42.158470153808594 250.75,42.158470153808594 249.75,41.158470153808594 248.75,40.158470153808594 247.75,39.158470153808594 246.75,38.158470153808594 246.75,37.158470153808594 245.75,36.158470153808594 244.75,35.158470153808594 244.75,34.158470153808594 244.75,33.158470153808594 243.75,33.158470153808594 243.75,32.158470153808594 243.75,31.158470153808594 243.75,30.158470153808594 243.75,29.15846824645996 242.75,29.15846824645996 241.75,28.15846824645996 241.75,27.15846824645996 240.75,27.15846824645996 239.75,26.15846824645996 238.75,25.15846824645996 237.75,24.15846824645996 236.75,22.15846824645996 235.75,22.15846824645996 234.75,20.15846824645996 232.75,20.15846824645996 232.75,19.15846824645996 231.75,19.15846824645996 230.75,19.15846824645996 229.75,19.15846824645996 228.75,19.15846824645996 227.75,19.15846824645996 " opacity="0.5" fill-opacity="null" stroke-width="1.5" stroke="#969696" fill="none"/>
  <path d="m227.75,19.158468c0,0 1,0 3,0c0,0 1.458801,-0.306564 2,1c0.38269,0.923882 1.292908,1.292892 2,2c0.707092,0.707108 0.292908,1.292892 1,2c0.707092,0.707108 1.076111,0.617317 2,1c1.306549,0.541199 1.292908,1.292892 2,2c0.707092,0.707108 2,0 3,1c1,1 1.458801,1.693436 2,3c0.38269,0.923882 1.458801,1.693436 2,3c0.38269,0.923882 0.61731,1.076118 1,2c0.541199,1.306564 2.458801,1.693436 3,3c0.38269,0.923882 0.707092,-0.292892 0,-1c-0.707092,-0.707108 -0.693451,-1.458801 -2,-2c-0.923889,-0.382683 -2.458801,-0.693436 -3,-2c-0.38269,-0.923882 0,-2 -1,-3c-1,-1 -3,-4 -3,-2c0,1 2,1 2,2c0,1 1.292908,1.292892 2,2c0.707092,0.707108 1,1 1,2c0,1 0.076111,1.617317 1,2c1.306549,0.541199 2.707092,1.292892 2,2c-0.707092,0.707108 -1.418854,-1.418861 -3,-3c-1.581146,-1.581139 -0.692535,-3.186005 -2,-5c-0.826904,-1.14727 -2,-2 -2,-3c0,-1 -0.38269,0.076118 0,1c0.541199,1.306564 1,2 2,3c1,1 0.693451,3.541199 2,3c0.923889,-0.382683 0,-2 0,-3c0,-1 -0.292908,-1.292892 -1,-2c-0.707092,-0.707108 1.458801,-1.306564 2,0c0.38269,0.923882 0.923889,2.382683 0,2c-1.306549,-0.541199 -1.292908,-1.292892 -2,-2c-0.707092,-0.707108 -0.292908,-1.292892 -1,-2c-0.707092,-0.707108 -1.292908,-1.292892 -2,-2c-0.707092,-0.707108 -0.292908,-1.292892 -1,-2c-0.707092,-0.707108 -2,0 -3,0c-1,0 0,-2 -1,-2c-1,0 0,0 -1,0c-1,0 -2,-1 -3,-1c-1,0 -2,0 -3,0c-1,0 -2,0 -3,0l-2,-1" id="svg_68" fill-opacity="null" stroke-width="1.5" stroke="#969696" fill="none"/>
  <path d="m328.75,56.158468c0,0 1.076111,0.38269 2,0c1.306549,-0.541199 1.292908,-1.292892 2,-2c0.707092,-0.707108 1.61731,-1.076126 2,-2c0.541199,-1.306564 2.076111,-0.61731 3,-1c1.306549,-0.541199 2,-1 3,-1c1,0 2.292908,0.707108 3,0c0.707092,-0.707108 1,-1 2,-1c1,0 2,0 3,0c1,0 2,0 3,0c1,0 1.292908,0.292892 2,1c0.707092,0.707108 0.923889,2.61731 0,3c-1.306549,0.541199 -1.292908,-1.292892 -2,-2c-0.707092,-0.707108 -1.693451,-0.458801 -3,-1c-0.923889,-0.38269 -2,0 -3,0c-1,0 -2,0 -3,0c-1,0 -2.026764,-0.229752 -3,0c-2.176239,0.513748 -2.292908,1.292892 -3,2c-0.707092,0.707108 -1.61731,1.076126 -2,2c-0.541199,1.306564 -3.707092,1.292892 -3,2c0.707092,0.707108 0.823761,-1.486252 3,-2c0.973236,-0.229752 2,-1 4,-2c2,-1 4,-2 5,-2c1,0 2,-1 3,-1c1,0 2,0 3,0c1,0 2,0 3,0c1,0 1.292908,0.292892 2,1c0.707092,0.707108 1,1 1,2l0,1" id="svg_69" fill-opacity="null" stroke-width="1.5" stroke="#969696" fill="none"/>
  <polyline stroke-linecap="round" id="svg_70" points="231.75,219.1584815979004 231.75,219.1584815979004 231.75,218.1584815979004 230.75,218.1584815979004 229.75,218.1584815979004 228.75,217.1584815979004 227.75,216.1584815979004 226.75,216.1584815979004 225.75,216.1584815979004 224.75,216.1584815979004 224.75,215.1584815979004 224.75,215.1584815979004 223.75,215.1584815979004 222.75,215.1584815979004 221.75,215.1584815979004 219.75,214.1584815979004 219.75,213.1584815979004 218.75,213.1584815979004 216.75,213.1584815979004 215.75,213.1584815979004 214.75,212.1584815979004 213.75,212.1584815979004 212.75,212.1584815979004 212.75,211.1584815979004 211.75,211.1584815979004 210.75,210.1584815979004 209.75,210.1584815979004 208.75,209.1584815979004 207.75,209.1584815979004 206.75,208.1584815979004 205.75,208.1584815979004 204.75,208.1584815979004 203.75,207.1584815979004 203.75,206.1584815979004 202.75,206.1584815979004 201.75,206.1584815979004 200.75,206.1584815979004 199.75,206.1584815979004 197.75,205.1584815979004 196.75,205.1584815979004 195.75,204.1584815979004 194.75,204.1584815979004 193.75,204.1584815979004 192.75,203.1584815979004 191.75,202.1584815979004 190.75,202.1584815979004 189.75,201.1584815979004 188.75,201.1584815979004 187.75,200.1584815979004 187.75,199.1584815979004 186.75,199.1584815979004 185.75,198.1584815979004 184.75,198.1584815979004 183.75,197.1584815979004 182.75,197.1584815979004 182.75,196.1584815979004 181.75,196.1584815979004 181.75,195.1584815979004 180.75,195.1584815979004 179.75,195.1584815979004 178.75,194.1584815979004 177.75,194.1584815979004 176.75,193.1584815979004 176.75,192.1584815979004 175.75,191.1584815979004 175.75,190.1584815979004 174.75,189.1584815979004 174.75,188.1584815979004 174.75,187.1584815979004 173.75,187.1584815979004 173.75,186.1584815979004 172.75,185.1584815979004 172.75,184.1584815979004 171.75,183.1584815979004 170.75,182.1584815979004 169.75,181.1584815979004 168.75,180.1584815979004 167.75,179.1584815979004 166.75,178.1584815979004 165.75,178.1584815979004 164.75,178.1584815979004 164.75,177.1584815979004 163.75,177.1584815979004 162.75,177.1584815979004 161.75,176.1584815979004 160.75,176.1584815979004 159.75,176.1584815979004 159.75,175.1584815979004 158.75,175.1584815979004 157.75,175.1584815979004 156.75,175.1584815979004 155.75,175.1584815979004 154.75,175.1584815979004 153.75,175.1584815979004 152.75,175.1584815979004 151.75,176.1584815979004 151.75,177.1584815979004 151.75,178.1584815979004 151.75,179.1584815979004 151.75,180.1584815979004 150.75,181.1584815979004 149.75,182.1584815979004 149.75,183.1584815979004 149.75,184.1584815979004 149.75,185.1584815979004 149.75,186.1584815979004 149.75,187.1584815979004 149.75,188.1584815979004 149.75,189.1584815979004 149.75,190.1584815979004 149.75,191.1584815979004 149.75,192.1584815979004 149.75,193.1584815979004 149.75,194.1584815979004 149.75,195.1584815979004 150.75,196.1584815979004 151.75,197.1584815979004 152.75,198.1584815979004 152.75,199.1584815979004 153.75,200.1584815979004 153.75,201.1584815979004 154.75,202.1584815979004 155.75,203.1584815979004 156.75,204.1584815979004 157.75,204.1584815979004 157.75,205.1584815979004 158.75,205.1584815979004 159.75,206.1584815979004 160.75,206.1584815979004 161.75,207.1584815979004 162.75,207.1584815979004 162.75,208.1584815979004 163.75,208.1584815979004 164.75,208.1584815979004 165.75,209.1584815979004 166.75,209.1584815979004 167.75,210.1584815979004 167.75,211.1584815979004 168.75,211.1584815979004 169.75,211.1584815979004 170.75,211.1584815979004 171.75,212.1584815979004 170.75,212.1584815979004 169.75,212.1584815979004 168.75,212.1584815979004 167.75,211.1584815979004 167.75,210.1584815979004 166.75,210.1584815979004 165.75,210.1584815979004 164.75,210.1584815979004 163.75,210.1584815979004 162.75,210.1584815979004 161.75,210.1584815979004 160.75,210.1584815979004 159.75,210.1584815979004 159.75,211.1584815979004 158.75,211.1584815979004 158.75,212.1584815979004 158.75,213.1584815979004 158.75,214.1584815979004 158.75,215.1584815979004 158.75,216.1584815979004 158.75,217.1584815979004 157.75,217.1584815979004 157.75,218.1584815979004 157.75,219.1584815979004 157.75,220.1584815979004 157.75,221.1584815979004 157.75,222.1584815979004 156.75,222.1584815979004 155.75,223.1584815979004 155.75,224.1584815979004 155.75,225.1584815979004 155.75,226.1584815979004 155.75,227.1584815979004 155.75,228.1584815979004 155.75,229.1584815979004 155.75,230.1584815979004 156.75,230.1584815979004 157.75,230.1584815979004 157.75,231.1584815979004 158.75,232.1584815979004 159.75,233.1584815979004 " opacity="0.5" fill-opacity="null" stroke-width="1.5" stroke="#969696" fill="none"/>
  <path d="m187.75,68.158468c0,0 0,1 0,1c0,1 -0.306564,2.458801 1,3c0.923874,0.38269 1,1 2,1c1,0 2,1 3,1c1,0 2,0 3,0c1,0 2.076126,0.38269 3,0c1.306564,-0.541199 2.486252,-0.823746 3,-3c0.229752,-0.973251 0.292892,-2.292892 1,-3c0.707108,-0.707108 1.61731,-1.076126 2,-2c0.541199,-1.306564 1.458801,-1.693436 2,-3c0.38269,-0.923874 0,-2 0,-3c0,-1 0,-2 0,-3l0,-1l0,-1" id="svg_72" fill-opacity="null" stroke-width="1.5" stroke="#969696" fill="none"/>
  <path d="m285.75,96.158468c0,0 0,0 0,1c0,1 0.61731,1.076126 1,2c0.541199,1.306564 1.693451,2.458801 3,3c0.923889,0.38269 2,0 3,0c1,0 2,0 3,0c1,0 2,0 3,0c1,0 2.292908,0.707108 3,0c0.707092,-0.707108 -0.707092,-2.292892 0,-3c0.707092,-0.707108 1.458801,-0.693436 2,-2c0.38269,-0.923874 0.292908,-1.292892 1,-2c0.707092,-0.707108 0.61731,-1.076126 1,-2c0.541199,-1.306564 1,-2 1,-3c0,-1 0,-2 0,-3l0,-1l0,-1l0,-1" id="svg_73" fill-opacity="null" stroke-width="1.5" stroke="#969696" fill="none"/>
  <path d="m188.75,67.158468c0,0 -0.707108,0.292892 0,1c0.707108,0.707108 1.292892,0.292892 2,1c0.707108,0.707108 1.292892,0.292892 2,1c0.707108,0.707108 2,1 3,1c1,0 2,0 3,0c1,0 2,0 3,-1c1,-1 1.097885,-2.824432 3,-4c0.850647,-0.525726 0.61731,-1.076126 1,-2c0.541199,-1.306564 1,-2 1,-3c0,-1 0,-2 0,-3l1,-2l1,0l0,-1" id="svg_74" fill-opacity="null" stroke-width="1.5" stroke="#969696" fill="none"/>
  <path d="m284.75,93.158468c0,0 -1,0 -1,1c0,0 0.292908,1.292892 1,2c0.707092,0.707108 1,1 2,1c1,0 1.076111,0.61731 2,1c1.306549,0.541199 1.076111,1.61731 2,2c1.306549,0.541199 1.292908,1.292892 2,2c0.707092,0.707108 2,0 3,0c1,0 2,0 3,0c1,0 2.076111,0.38269 3,0c1.306549,-0.541199 2,-1 2,-2c0,-1 0,-2 0,-3c0,-1 0,-2 0,-3l0,-1l0,-1" id="svg_75" fill-opacity="null" stroke-width="1.5" stroke="#969696" fill="none"/>
  <path d="m187.75,67.158468c0,0 0,0 1,0c1,0 2,0 3,0c1,0 0,0 -1,0c-1,0 -2,0 -3,0c-1,0 -1,1 0,1c1,0 0.693436,1.458801 2,2c0.923874,0.38269 2,0 3,1c1,1 2,1 3,1c1,0 2,0 3,0l1,0" id="svg_76" fill-opacity="null" stroke-width="1.5" stroke="#969696" fill="none"/>
  <path d="m291.75,131.158468c0,0 0,-1 0,-2c0,0 0,-1 -1,-2c-1,-1 -1.458801,-1.693436 -2,-3c-0.38269,-0.923874 0.306549,-2.458801 -1,-3c-0.923889,-0.38269 -0.61731,-1.076126 -1,-2c-0.541199,-1.306564 -1.458801,-1.693436 -2,-3c-0.38269,-0.923874 -0.61731,-1.076126 -1,-2c-0.541199,-1.306564 -1,-2 -1,-3c0,-1 0,-2 0,-3c0,-1 0,-2 0,-3c0,-1 0.458801,-1.693436 1,-3c0.38269,-0.923874 1,-1 1,-2c0,-1 1,-1 1,-2c0,-1 0,-2 0,-3c0,-1 -0.38269,-2.076126 0,-3c0.541199,-1.306564 1.693451,-2.458801 3,-3c0.923889,-0.38269 2,-1 2,-2c0,-1 1.076111,-1.61731 2,-2c1.306549,-0.541199 3.076111,-0.61731 4,-1c1.306549,-0.541199 1.693451,-1.458801 3,-2c0.923889,-0.38269 2,0 3,0c1,0 2,0 3,0c1,0 2.076111,0.38269 3,0c1.306549,-0.541199 2,-1 3,-1c1,0 2,0 3,0c1,0 2,0 3,0c1,0 2,0 3,0c1,0 2,0 3,0c1,0 1.693451,0.458801 3,1c0.923889,0.38269 1,1 2,1c1,0 2.076111,0.61731 3,1c1.306549,0.541199 1.61731,1.076126 2,2c0.541199,1.306564 1.292908,1.292892 2,2c0.707092,0.707108 1,2 1,3c0,1 0,2 0,3c0,1 0,2 0,3c0,1 0,2 0,3c0,1 0,2 0,3c0,1 -0.38269,2.076126 0,3c0.541199,1.306564 1.458801,1.693436 2,3c0.38269,0.923874 0,2 0,3c0,1 0,2 0,3c0,1 0.38269,2.076126 0,3c-0.541199,1.306564 -0.292908,2.292892 -1,3c-0.707092,0.707108 -1.292908,2.292892 -2,3c-0.707092,0.707108 -1.292908,0.292892 -2,1c-0.707092,0.707108 0.38269,2.076126 0,3c-0.541199,1.306564 -2,2 -2,3c0,1 -0.61731,1.076126 -1,2c-0.541199,1.306564 -1.585785,0.585785 -3,2c-0.707092,0.707108 -1,1 -2,2c-1,1 -2.292908,0.292892 -3,1c-0.707092,0.707108 -1.292908,0.292892 -2,1c-0.707092,0.707108 -1,1 -2,1c-1,0 -2,1 -3,1c-1,0 -2,0 -3,0c-1,0 -2,0 -3,0c-1,0 -1.693451,-0.458801 -3,-1c-0.923889,-0.38269 -2.292908,-0.292892 -3,-1c-0.707092,-0.707108 -1,-2 -2,-3c-1,-1 -2.292908,-0.292892 -3,-1c-0.707092,-0.707108 -0.292908,-1.292892 -1,-2c-0.707092,-0.707108 -1.693451,-0.458801 -3,-1c-0.923889,-0.38269 -2,0 -3,0l0,-1l-1,0l-1,-1" id="svg_77" fill-opacity="null" stroke-width="1.5" stroke="#969696" fill="none"/>
  <path d="m320.75,140.158468c1,0 2.076111,0.38269 3,0c1.306549,-0.541199 2.61731,-2.076126 3,-3c0.541199,-1.306564 2.458801,-1.693436 3,-3c0.38269,-0.923874 1,-2 2,-3c1,-1 1.292908,-2.292892 2,-3c0.707092,-0.707108 1,-2 2,-3l0,-1l0,-1l0,-1" id="svg_78" fill-opacity="null" stroke-width="1.5" stroke="#969696" fill="none"/>
  <path d="m282.75,109.158468c0,0 0.292908,1.292892 1,2c0.707092,0.707108 2,1 2,1c1,0 1.693451,1.458801 3,2c0.923889,0.38269 2.076111,0.61731 3,1c1.306549,0.541199 2.585785,0.585785 4,2c0.707092,0.707108 1.149353,1.474274 2,2c1.9021,1.175568 1.692535,2.186005 3,4c0.826904,1.147263 2.076111,0.61731 3,1c1.306549,0.541199 1,2 2,2c1,0 2.076111,-0.38269 3,0c1.306549,0.541199 1.693451,1.458801 3,2c0.923889,0.38269 1.292908,0.292892 2,1c0.707092,0.707108 2.292908,-0.707108 3,0c0.707092,0.707108 1,1 2,1c1,0 2,0 3,0c1,0 2,0 3,0c1,0 2,0 3,0c1,0 2,0 3,0l1,-1l1,0" id="svg_79" fill-opacity="null" stroke-width="1.5" stroke="#969696" fill="none"/>
  <path d="m178.75,95.158468c0,0 0,1 0,2c0,1 1,2 1,2c1,1 2,1 3,1c1,0 2,0 3,0c1,0 2,0 3,0c1,0 2,0 3,0c1,0 2,2 3,2c1,0 2,0 3,0c2,0 3,0 4,0c1,0 2,0 3,0c1,0 3,0 4,0c1,0 2,0 3,0c1,0 1.693436,-0.458801 3,-1c0.923874,-0.38269 2,0 3,0c1,0 2,0 3,0c1,0 2,0 3,0c1,0 1.292892,-0.292892 2,-1c0.707108,-0.707108 1.693436,-0.458801 3,-1c0.923874,-0.38269 2,-1 3,-1c1,0 2,0 3,-1l1,0" id="svg_80" fill-opacity="null" stroke-width="1.5" stroke="#969696" fill="none"/>
  <path d="m201.75,52.158468c0,0 0,1 1,1c1,0 1.076126,0.61731 2,1c1.306564,0.541199 2,1 3,1c1,0 1,0 2,0c1,0 1,1 2,1c1,0 1.693436,0.458801 3,1c0.923874,0.38269 1.076126,0.61731 2,1c1.306564,0.541199 1.693436,1.458801 3,2c0.923874,0.38269 2.076126,-0.38269 3,0c1.306564,0.541199 2,1 3,1c1,0 2.292892,-0.707108 3,0c0.707108,0.707108 1.026749,1.770248 2,2c2.176239,0.513748 3.292908,1.292892 4,2c0.707092,0.707108 0.693451,1.458801 2,2c0.923889,0.38269 2.076111,0.61731 3,1c1.306549,0.541199 1.292908,1.292892 2,2c0.707092,0.707108 1.458801,1.693436 2,3c0.38269,0.923874 0.61731,2.076126 1,3c0.541199,1.306564 1,2 2,3l0,1l1,0l1,0" id="svg_81" fill-opacity="null" stroke-width="1.5" stroke="#969696" fill="none"/>
  <path d="m180.75,100.158468c0,0 -1,0 -1,1c0,1 0,2 1,3c0,0 -0.414215,1.585785 1,3c0.707108,0.707108 1,1 2,1c1,0 1.292892,0.292892 2,1c0.707108,0.707108 1.076126,1.61731 2,2c1.306564,0.541199 1.292892,1.292892 2,2c0.707108,0.707108 2,0 3,0c1,0 2,0 3,0c1,0 2,0 3,0c1,0 2,0 3,0c1,0 2,0 3,0c1,0 2,0 3,0c1,0 2,0 3,0c1,0 2,0 3,0c1,0 2,0 3,0c1,0 2.076126,-0.61731 3,-1c1.306564,-0.541199 0.852737,-2.173096 2,-3c1.813995,-1.307449 2,-2 3,-2c1,0 1.076126,-0.61731 2,-1c1.306564,-0.541199 2,-1 3,-2c1,-1 2.292892,-0.292892 3,-1c0.707092,-0.707108 1,-1 2,-2c1,-1 2.458801,-1.693436 3,-3c0.38269,-0.923874 1,-1 1,-2c0,-1 1,-1 1,-3c0,-1 1.292908,-1.292892 2,-2c1.414215,-1.414215 0.61731,-2.076126 1,-3c0.541199,-1.306564 1.292908,-1.292892 2,-2c0.707092,-0.707108 -0.38269,-2.076126 0,-3c0.541199,-1.306564 0.61731,-2.076126 1,-3c0.541199,-1.306564 1,-2 1,-3c0,-1 0,-2 0,-3c0,-1 0,-2 0,-3c0,-1 0,-2 0,-3c0,-1 0,-2 0,-3c0,-1 0,-2 0,-3c0,-1 -0.692535,-1.186005 -2,-3c-0.826904,-1.147263 -0.823761,-2.486252 -3,-3c-0.973236,-0.229752 -2.292908,-0.292892 -3,-1c-0.707092,-0.707108 -0.693451,-2.458801 -2,-3c-0.923889,-0.38269 -1.292908,-0.292892 -2,-1c-0.707092,-0.707108 -0.693451,-2.458801 -2,-3c-0.923874,-0.382683 -1.693436,-0.458801 -3,-1c-0.923874,-0.382683 -1.693436,-0.458801 -3,-1c-0.923874,-0.382683 -2.076126,0.382683 -3,0c-1.306564,-0.541199 -2,-1 -3,-1c-1,0 -2,0 -3,0c-1,0 -1.693436,0.458801 -3,1c-0.923874,0.382683 -2,1 -3,1c-1,0 -2.076126,0.617317 -3,1c-1.306564,0.541199 -1.292892,1.292892 -2,2c-0.707108,0.707108 -0.292892,1.292892 -1,2c-0.707108,0.707108 -2,0 -3,0c-1,0 -2.292892,-0.707108 -3,0c-0.707108,0.707108 -1,2 -2,2c-1,0 -2,1 -3,2c-1,1 -2.458801,1.693436 -3,3c-0.38269,0.923874 -0.076126,1.61731 -1,2c-1.306564,0.541199 -1,2 -2,3c-1,1 -2.292892,2.292892 -3,3c-0.707108,0.707108 -0.693436,1.458801 -2,2c-0.923874,0.38269 -1,1 -2,2c-1,1 -1.076126,1.61731 -2,2c-1.306564,0.541199 -1.292892,2.292892 -2,3c-0.707108,0.707108 -1,1 -1,2c0,1 0.707108,2.292892 0,3c-0.707108,0.707108 -1,1 -1,2c0,1 0,2 0,3c0,1 0,2 0,3c0,1 0,2 0,3c0,1 0,2 0,3c0,1 0,2 0,3c0,1 0.824432,1.097885 2,3c0.525726,0.850647 1,1 2,1l1,1" id="svg_83" fill-opacity="null" stroke-width="1.5" stroke="#969696" fill="none"/>
  <path d="m219.75,19.158468c0,0 1,0 2,0l1,0" id="svg_84" fill-opacity="null" stroke-width="1.5" stroke="#969696" fill="none"/>
  <path d="m238.75,17.158468c0,0 -1,0 -2,0c-1,0 -2,0 -3,0c0,0 -0.292908,-1.292892 -1,-2c-0.707108,-0.707108 -2.076126,-0.382683 -3,0c-1.306564,0.541199 -1,2 -2,2l-1,1" id="svg_85" fill-opacity="null" stroke-width="1.5" stroke="#969696" fill="none"/>
  <path d="m156.75,232.158468c0,0 -0.61731,-1.076111 -1,-2c-0.541199,-1.306549 -0.292892,-2.292908 -1,-3c-0.707108,-0.707092 -1,1 -1,2c0,1 0.292892,2.292908 1,3c0.707108,0.707092 1.292892,0.292908 2,1c0.707108,0.707092 0.693436,2.458801 2,3c0.923874,0.38269 0,0 -1,0c-1,0 -1.292892,-0.292908 -2,-1c-0.707108,-0.707092 -2.306564,-0.541199 -1,0c0.923874,0.38269 0.541199,-0.693451 0,-2c-0.38269,-0.923889 0,-2 0,-3c0,-1 0,-2 0,-3c0,-1 0.292892,-0.707092 1,0c0.707108,0.707092 0.186005,1.692535 2,3c1.147263,0.826904 1,2 2,2c1,0 1.292892,0.292908 2,1c0.707108,0.707092 -1,1 -2,1c-1,0 -1.292892,-0.292908 -2,-1c-0.707108,-0.707092 -2.707108,-1.292908 -2,-2c0.707108,-0.707092 2.292892,0.292908 3,1c0.707108,0.707092 0.902115,-0.824432 -1,-2c-0.850647,-0.525726 -1.458801,-0.693451 -2,-2c-0.38269,-0.923889 -0.292892,-1.292908 -1,-2c-0.707108,-0.707092 -1,-1 -1,-2c0,-1 -1.458801,-0.693451 -2,-2c-0.38269,-0.923889 0,-2 -1,-3c-1,-1 0,-3 -1,-3c-1,0 0,2 0,3c0,1 -0.707108,2.292908 0,3c0.707108,0.707092 1,1 2,2c1,1 1.097885,4.175568 3,3c0.850647,-0.525726 -1,-1 -1,-2c0,-2 -0.292892,-2.292908 -1,-3c-0.707108,-0.707092 -0.458801,-1.693451 -1,-3c-0.38269,-0.923889 -1,-1 -1,0c0,1 0,2 0,3c0,1 1.458801,0.693451 2,2c0.38269,0.923889 -0.292892,0.707092 -1,0c-0.707108,-0.707092 -1.458801,-2.693451 -2,-4c-0.38269,-0.923889 -1,-1 -1,-2c0,-1 0,-2 0,-3c0,-1 0,-2 0,-3c0,-1 0,-2 0,-3c0,-1 0,-2 0,-3c0,-1 0,-2 -1,-2l-1,-1" id="svg_86" fill-opacity="null" stroke-width="1.5" stroke="#969696" fill="none"/>
  <polyline stroke-linecap="round" id="svg_87" points="0.75,17.15846824645996 0.75,18.15846824645996 " fill-opacity="null" stroke-width="1.5" stroke="#969696" fill="none"/>
  <text xml:space="preserve" text-anchor="start" font-family="Helvetica, Arial, sans-serif" font-size="24" id="svg_88" y="305.158468" x="1.75" stroke-width="0" stroke="#a8a8a8" fill="#a8a8a8">"Hummm... E se clicar em um pedido na lateral?"</text>
 </g>
</svg>