<?xml version="1.0" encoding="UTF-8"?>
<svg width="135px" height="119px" viewBox="0 0 135 119" version="1.1" xmlns="http://www.w3.org/2000/svg" xmlns:xlink="http://www.w3.org/1999/xlink">
    <!-- Generator: sketchtool 56.3 (101010) - https://sketch.com -->
    <title>AB968C12-C6EC-44AC-A7D8-F5F915B53F22</title>
    <desc>Created with sketchtool.</desc>
    <defs>
        <polygon id="path-1" points="0 0.141577444 9.7957871 0.141577444 9.7957871 9.66032626 0 9.66032626"></polygon>
        <polygon id="path-3" points="0 0.120149454 9.7957871 0.120149454 9.7957871 4.55769242 0 4.55769242"></polygon>
    </defs>
    <g id="Release-3" stroke="none" stroke-width="1" fill="none" fill-rule="evenodd">
        <g id="📱-Home" transform="translate(-118.000000, -424.000000)">
            <g id="Menu-card" transform="translate(16.000000, 392.000000)">
                <g id="Illustration-/-Indicators-Copy" transform="translate(84.000000, 16.000000)">
                    <rect id="Base-mask" x="0" y="0" width="158" height="158"></rect>
                    <polygon id="Path" fill="#CAE5F5" fill-rule="nonzero" points="61.8175014 117.30089 109.612503 129.694014 139.653665 102.523658 138.04545 58.6786597 97.8471454 37.7366068 45.932858 28.9196429 18.3392857 55.0954455 22.5855358 90.7371407"></polygon>
                    <g id="Group-74" transform="translate(25.392857, 23.276786)">
                        <path d="M14.5814555,23.5157185 C16.8605622,25.2193843 20.1777145,23.8345331 20.7871502,23.214286 C21.8833949,22.0984348 21.6786276,22.9739032 21.8660714,21.5029891 C19.8686171,19.2532684 19.1957269,18.9092284 18.9730522,17.6572874 C18.7268253,16.2739201 19.3763581,9.02491453 19.3763581,9.02491453 L13.9000009,8.81696429 C13.9000009,8.81696429 13.369786,15.9773632 13.146722,17.164227 C13.0120271,17.8817719 11.7760268,19.2439414 11.2857143,20.1391238 C12.086876,21.7206903 13.2171837,22.4958932 14.5814555,23.5157185" id="Fill-1" fill="#F48170"></path>
                        <path d="M11.1163219,3.87946429 C10.616472,5.44470834 9.52299086,7.21401936 13.3468425,10.2276786 L15.5178571,9.23211234 L13.2678186,5.05827433 L11.1163219,3.87946429 Z" id="Fill-8" fill="#F5A391"></path>
                        <path d="M21.6882926,7.26002812 C21.9237794,9.01064594 22.0398615,11.2338616 21.283978,12.3224974 C20.7835166,13.0431497 19.9811172,13.1514309 18.2062445,12.9747729 C16.4843253,12.8032917 14.6251425,11.2513332 14.2339105,8.34219293 C13.8424708,5.43262124 14.2278884,2.97235179 17.2524607,2.53318744 C20.5827091,2.04980467 21.2968529,4.35088783 21.6882926,7.26002812" id="Fill-10" fill="#F48170"></path>
                        <path d="M17.3736414,8.6703616 C16.3570833,8.80568236 15.4178491,8.1299954 15.2757041,7.16093011 C15.1335591,6.19168146 15.842553,5.29632748 16.8591111,5.16082336 L17.3736414,8.6703616 Z" id="Fill-14" fill="#F5A391" transform="translate(16.315606, 6.924216) scale(-1, 1) rotate(16.000000) translate(-16.315606, -6.924216) "></path>
                        <path d="M16.2232143,10.2104311 C15.2066562,10.3457519 14.267422,9.67006489 14.125277,8.7009996 C13.983132,7.73175096 14.6921259,6.83639697 15.708684,6.70089286 L16.2232143,10.2104311 Z" id="Fill-14-Copy" fill="#F48170"></path>
                        <path d="M19.7528648,1.25248039 C18.2741103,0.652190065 18.1791582,2.27496978 16.3617198,1.14435356 C12.8889721,-1.01642841 9.88387948,1.72271146 9.86622399,3.67403882 C9.85459721,4.96103319 7.45086757,5.70454221 8.96428571,7.90436389 C10.3181613,9.87257921 16.5096384,8.11469579 17.2528912,7.64687728 C18.2433208,7.02355792 18.5320526,5.67120494 18.6909519,4.00390241 C18.6909519,4.00390241 19.553487,3.47313786 21.5614754,4.2648982 C22.1824317,3.55450713 21.9813314,2.15719269 19.7528648,1.25248039" id="Fill-24" fill="#F8C6BD"></path>
                        <g id="Group-32" transform="translate(0.000000, 101.218750)">
                            <mask id="mask-2" fill="white">
                                <use xlink:href="#path-1"></use>
                            </mask>
                            <g id="Clip-31"></g>
                            <path d="M2.3490689,0.141577444 C1.86015958,1.71427855 1.11876006,4.1317215 0.551625251,5.34741988 C0.00133602943,6.52683837 -0.14543358,7.57058295 0.148105639,7.9503411 C0.441451231,8.33009926 2.38566449,8.27578676 5.43045619,9.21112101 C7.74062533,9.92083297 9.79578712,9.57714003 9.79578712,9.57714003 C9.79578712,9.57714003 9.62442683,8.42477046 8.84197829,8.31636013 C8.05933612,8.2079498 5.96835325,7.00126773 5.43045619,6.24218076 C4.89255912,5.4830938 6.71439983,1.07691169 6.71439983,1.07691169 L2.3490689,0.141577444 Z" id="Fill-30" fill="#F48170" mask="url(#mask-2)"></path>
                        </g>
                        <g id="Group-35" transform="translate(0.000000, 106.156250)">
                            <mask id="mask-4" fill="white">
                                <use xlink:href="#path-3"></use>
                            </mask>
                            <g id="Clip-34"></g>
                            <path d="M9.79578712,4.47361378 C9.79578712,4.47361378 9.62442683,3.3085808 8.84197829,3.19897915 C8.15827975,3.10326761 6.47604444,2.16004233 5.70308364,1.41149562 C5.19345619,1.75202035 3.83651499,2.52313849 2.89935812,1.8010698 C2.08147576,1.17058902 1.10365712,0.481075282 0.585897311,0.120149454 C0.574473291,0.145542312 0.562662016,0.173322532 0.551625251,0.197413191 C0.00133602943,1.38979232 -0.14543358,2.44500662 0.148105639,2.82893794 C0.441451231,3.21265223 2.38566449,3.15795992 5.43045619,4.10357257 C7.74062533,4.82108356 9.79578712,4.47361378 9.79578712,4.47361378" id="Fill-33" fill="#876FDF" mask="url(#mask-4)"></path>
                        </g>
                        <g id="Group-40" transform="translate(0.000000, 108.272321)" fill="#876FDF">
                            <path d="M9.87594861,2.74690441 C9.87594861,2.74690441 9.90022533,2.52921073 9.79578685,2.29740472 C8.66121406,2.3335703 6.42772189,2.38928833 4.88320367,1.83583946 C3.3008143,1.26873231 2.16900176,0.787280769 -5.58151756e-05,0.222866801 C0.00448987855,0.440245051 0.0302749051,1.06378451 0.125538415,1.17343549 C0.421284763,1.51354588 2.40518113,1.58075667 5.47489157,2.41891333 C7.80396727,3.05488899 9.87594861,2.74690441 9.87594861,2.74690441" id="Fill-38"></path>
                        </g>
                        <path d="M19.6802622,102.854522 C19.6802622,104.761953 19.0452195,109.675885 19.0452195,109.675885 C19.0452195,109.675885 18.9933081,110.311836 19.8745709,110.364901 C20.7556286,110.417757 29.6185271,110.364901 29.6185271,110.364901 C29.6185271,110.364901 29.7221447,109.517107 29.1002337,109.35812 C28.4783228,109.199132 25.3166512,108.45747 24.5911226,107.450689 C23.8653888,106.444117 24.4355935,102.629464 24.4355935,102.629464 L19.6802622,102.854522 Z" id="Fill-41" fill="#F48170"></path>
                        <path d="M24.6864171,107.214286 C24.3236467,107.799705 23.4204139,109.11179 22.634548,109.073269 C21.7331619,109.028982 20.4296095,108.432294 19.2206482,108.057039 C19.1211326,109.116245 19.0452134,109.851033 19.0452134,109.851033 C19.0452134,109.851033 18.9935063,110.645307 19.8745789,110.711605 C20.7556515,110.777904 29.6184949,110.711605 29.6184949,110.711605 C29.6184949,110.711605 29.7223195,109.652399 29.100398,109.453765 C28.5022781,109.262731 25.5572304,108.398752 24.6864171,107.214286 Z" id="Fill-43" fill="#876FDF"></path>
                        <path d="M25.8966642,50.4330357 C27.0050736,58.5754051 27.6559137,74.6328532 27.4805578,84.02395 C27.3054127,93.4148358 26.1744516,103.263258 26.1744516,103.263258 C24.6306032,103.860714 20.1586068,104.503332 18.9768515,103.566945 C18.9768515,103.566945 20.393609,84.4325247 17.529744,70.0534827 C14.6656682,55.6744407 14.1071429,50.9426988 14.1071429,50.9426988 L25.8966642,50.4330357 Z" id="Fill-49" fill="#21364F"></path>
                        <path d="M9.06835565,51.1383929 C8.53714583,54.9640258 8.01579986,68.3067113 7.81338528,76.9249982 C7.61055971,85.5432852 5.84390174,85.6057139 3.70138969,92.8101981 C1.55908314,100.014474 1.41071429,101.903776 1.41071429,101.903776 C2.12193951,103.157969 6.37305659,103.560843 7.92229871,103.217693 C7.92229871,103.217693 13.2054219,90.5155259 15.1303126,83.7264009 C17.0552033,76.937484 19.8822259,58.2871074 20.4553571,51.5706078 L9.06835565,51.1383929 Z" id="Fill-51" fill="#2B4A6F"></path>
                        <path d="M11.755218,19.3973214 C10.11729,20.9435044 6.84164321,22.4364945 4.93954681,25.9554593 C3.03745041,29.4746352 5.57350923,38.9655603 5.57350923,38.9655603 L8.63811408,43.7643214 L8.87571926,51.7622564 C13.1747834,53.1665917 23.3746551,52.5797809 26.7862556,50.8824625 C26.7862556,50.8824625 27.6053241,37.4193773 27.4994894,31.9274197 C27.394073,26.4354621 25.9144788,23.9828886 23.7484231,22.2233007 C21.5821583,20.4637128 19.9971477,19.6107263 19.9971477,19.6107263 C19.9971477,19.6107263 19.1519342,21.6898939 16.6158754,21.7432979 C14.0798165,21.7967019 11.755218,19.3973214 11.755218,19.3973214" id="Fill-55" fill="#3B83DB"></path>
                        <path d="M22.5752804,44.3388948 C22.8801324,42.0824998 23.9897052,33.0082762 24.2091745,31.2099448 C24.2316225,31.0275301 24.3685153,30.886292 24.5406835,30.8675172 L32.7420221,29.9797657 C32.9803317,29.9539503 33.1791569,30.1713545 33.1486918,30.4243882 L31.5747258,43.4835726 C31.5530795,43.6653472 31.4169885,43.8072253 31.2462233,43.8270669 L22.9843552,44.7877842 C22.7426383,44.8157331 22.5408067,44.5949154 22.5752804,44.3388948" id="Fill-61" fill="#34464D"></path>
                        <path d="M22.5753225,44.3388629 C22.880179,42.082473 23.989568,33.0080561 24.2090407,31.209942 C24.231489,31.0275277 24.3683838,30.88629 24.5405546,30.8675152 L32.742016,29.9797657 C32.9803292,29.9539504 33.1791573,30.1713541 33.1486917,30.4243872 L31.5747022,43.4835427 C31.5530556,43.6653169 31.4169625,43.8071947 31.2461948,43.8270362 L22.984203,44.7877514 C22.7424825,44.8159136 22.5406479,44.594883 22.5753225,44.3388629" id="Fill-63" fill="#6B6B78"></path>
                        <path d="M32.8430668,36.736343 C31.9202082,37.303177 30.8562576,37.5088306 31.0613793,37.9946564 C31.266501,38.480706 32.8088799,37.7082184 32.8088799,37.7082184 C32.8088799,37.7082184 31.1259756,38.1351901 31.1259756,38.8235366 C31.1259756,39.511883 32.706319,38.6800938 32.706319,38.6800938 C32.706319,38.6800938 31.3297751,39.2728863 31.5348968,39.6779276 C31.7400185,40.0827451 32.638134,39.611465 32.638134,39.611465 C32.638134,39.611465 31.636891,40.1923972 31.7394518,40.4555622 C31.8420127,40.7189509 32.5027084,40.4244568 32.8695098,40.1368998 C33.3755143,39.7399146 34.1419818,38.2750524 33.7489264,36.8171275 C33.355871,35.3594263 32.9456276,35.6427314 32.9456276,35.6427314 L32.8430668,36.736343 Z" id="Fill-67" fill="#F48170"></path>
                        <path d="M31.7381442,42.9188484 C31.6800019,42.5981286 31.1043935,42.5584541 30.8095292,42.559285 C31.0985793,42.5418365 31.6457395,42.4680959 31.6069088,42.1579698 C31.5545808,41.7381676 30.243265,41.8430662 29.036813,41.7381676 C29.0197856,41.7369213 28.9998511,41.7367136 28.9824085,41.7354673 C29.3192183,41.5676295 29.653744,41.3746575 29.613875,41.2857533 C29.402071,40.8136057 26.663778,41.553089 25.7052612,42.0823597 C25.0193901,42.2015911 24.3493005,42.3272617 23.7913424,42.4203203 C22.2179712,42.6826707 13.8255504,42.8401225 13.8255504,42.8401225 C13.8255504,42.8401225 12.5667704,38.4850639 11.832309,36.333915 C9.9246197,36.2213307 6.35800701,37.3203775 5.64285714,37.960363 C5.64285714,37.960363 6.99362656,45.9883276 10.8883278,47.2475266 C14.7828213,48.5067256 24.8536847,46.1455717 27.5680979,45.51618 C30.2825111,44.8865805 30.8726551,44.8078546 30.8726551,44.492951 C30.8726551,44.1780474 30.1251116,44.1387883 30.1251116,44.1387883 C30.1251116,44.1387883 31.4233454,43.9813365 31.3840993,43.7058997 C31.3446457,43.4304629 30.2825111,43.4304629 30.2825111,43.4304629 C30.2825111,43.4304629 31.8168439,43.351737 31.7381442,42.9188484" id="Fill-70" fill="#F48170"></path>
                    </g>
                    <rect id="Rectangle" fill="#3B83DB" x="67.7142857" y="16.9285714" width="63.4821429" height="14.1071429"></rect>
                    <rect id="Rectangle-Copy-2" fill="#3B83DB" x="67.7142857" y="50.7857143" width="63.4821429" height="14.1071429"></rect>
                    <rect id="Rectangle-Copy-3" fill="#3B83DB" x="67.7142857" y="65.5982143" width="63.4821429" height="14.1071429"></rect>
                    <rect id="Rectangle-Copy" fill="#6EBCEA" x="62.0714286" y="32.4464286" width="74.7678571" height="16.9285714"></rect>
                    <path d="M142.218667,22.5383515 L145.960854,28.0796338" id="Line-3-Copy-10" stroke="#3B83DB" stroke-width="4" stroke-linecap="round" transform="translate(144.089761, 25.308993) scale(-1, 1) rotate(-1.000000) translate(-144.089761, -25.308993) "></path>
                    <path d="M143.892857,40.9107148 L150.958675,40.9181671" id="Line-3-Copy-11" stroke="#3B83DB" stroke-width="4" stroke-linecap="round" transform="translate(147.425766, 40.914441) scale(-1, 1) rotate(-1.000000) translate(-147.425766, -40.914441) "></path>
                    <path d="M143.1875,53.6071429 L147.45467,59.3423524" id="Line-3-Copy-16" stroke="#3B83DB" stroke-width="4" stroke-linecap="round" transform="translate(145.321085, 56.474748) rotate(-1.000000) translate(-145.321085, -56.474748) "></path>
                    <circle id="Oval" fill="#FFFFFF" cx="76.8839286" cy="23.9821429" r="3.52678571"></circle>
                    <circle id="Oval-Copy-2" fill="#FFFFFF" cx="76.8839286" cy="57.8392857" r="3.52678571"></circle>
                    <circle id="Oval-Copy-3" fill="#FFFFFF" cx="76.8839286" cy="72.6517857" r="3.52678571"></circle>
                    <circle id="Oval-Copy" fill="#FFFFFF" cx="72.2991071" cy="41.2633929" r="5.29017857"></circle>
                    <path d="M84.9955357,23.9821429 L125.081726,23.9821429" id="Line" stroke="#FFFFFF" stroke-width="4" stroke-linecap="round"></path>
                    <path d="M84.9955357,57.8392857 L125.081726,57.8392857" id="Line-Copy-2" stroke="#FFFFFF" stroke-width="4" stroke-linecap="round"></path>
                    <path d="M84.9955357,72.6517857 L125.081726,72.6517857" id="Line-Copy-3" stroke="#FFFFFF" stroke-width="4" stroke-linecap="round"></path>
                    <path d="M83.8779166,40.9107143 L131.196429,40.9107143" id="Line-Copy" stroke="#FFFFFF" stroke-width="4" stroke-linecap="round"></path>
                </g>
            </g>
        </g>
    </g>
</svg>